<svg width="379" height="348" viewBox="0 0 379 348" fill="none" xmlns="http://www.w3.org/2000/svg">
<path fill-rule="evenodd" clip-rule="evenodd" d="M43.6887 277.281C-11.8928 238.721 54.6742 187.626 38.4134 126.529C22.1525 65.432 -17.2369 -25.6652 138.158 6.79514C295.605 39.6842 395.464 82.034 371.865 213.213C348.266 344.393 99.2702 315.84 43.6887 277.281Z" fill="#00AAFF"/>
<path fill-rule="evenodd" clip-rule="evenodd" d="M189.189 320.883C190.463 321.05 189.993 323.029 189.166 324.013C181.269 333.415 170.957 340.772 159.497 345.181C156.928 346.17 154.269 347.02 151.522 347.209C146.428 347.56 141.353 345.571 137.325 342.433C133.296 339.295 130.226 335.077 127.725 330.625C120.884 318.451 118.016 304.086 119.658 290.219C119.812 288.914 120.702 287.183 121.905 287.713C121.556 292.349 121.502 297.007 121.743 301.651C121.98 306.211 122.506 310.784 123.816 315.159C125.028 319.21 126.894 323.031 128.839 326.785C130.838 330.644 132.957 334.492 135.844 337.74C138.732 340.989 142.479 343.628 146.743 344.471C152.088 345.526 157.574 343.685 162.502 341.361C172.722 336.543 181.89 329.508 189.189 320.883Z" fill="#00160A"/>
<path fill-rule="evenodd" clip-rule="evenodd" d="M226.165 268.041C235.446 258.91 244.728 249.778 254.01 240.646C254.529 240.135 255.299 239.589 255.913 239.981C256.733 240.504 256.077 241.763 255.386 242.446C245.396 252.326 235.406 262.206 225.416 272.086C224.697 271.721 224.487 270.736 224.741 269.97C224.995 269.204 225.589 268.607 226.165 268.041H226.165Z" fill="#00160A"/>
<path fill-rule="evenodd" clip-rule="evenodd" d="M155.109 215.522C154.544 215.62 153.978 215.718 153.412 215.816C152.314 214.167 151.19 212.457 150.845 210.507C150.5 208.556 151.146 206.286 152.877 205.324C154.836 204.235 155.426 201.558 154.802 199.405C154.178 197.253 152.632 195.509 151.118 193.857C149.58 192.179 147.113 190.397 145.288 191.757C144.097 192.643 142.316 192.142 141.251 191.109C140.185 190.076 139.622 188.649 138.933 187.335C137.63 184.848 135.729 182.605 133.243 181.302C130.757 179.998 127.645 179.74 125.142 181.012C122.66 182.274 121.094 184.785 118.978 186.596C116.862 188.406 113.368 189.367 111.461 187.338C110.976 186.822 110.651 186.056 110.926 185.404C111.202 184.751 112.272 184.527 112.613 185.147C113.484 186.728 115.888 186.706 117.392 185.708C118.896 184.711 119.837 183.08 121.071 181.764C123.484 179.188 127.152 177.847 130.658 178.259C134.163 178.671 137.421 180.825 139.171 183.89C140.015 185.367 140.535 187.047 141.636 188.343C142.737 189.639 144.739 190.433 146.152 189.486C147.747 188.416 149.829 189.746 151.229 191.061C153.124 192.84 154.971 194.764 156.038 197.134C157.106 199.505 157.275 202.422 155.88 204.616C154.719 206.443 152.497 207.922 152.69 210.078C152.869 212.088 155.182 213.506 155.109 215.522Z" fill="#00160A"/>
<path fill-rule="evenodd" clip-rule="evenodd" d="M179.61 125.01C183.008 126.601 186.032 129.146 187.778 132.466C189.525 135.787 189.881 139.911 188.315 143.32C185.075 150.373 174.773 153.119 173.637 160.797C173.347 162.753 173.741 164.786 173.258 166.703C172.924 168.028 172.192 169.21 171.607 170.445C170.352 173.093 169.759 176.052 169.897 178.98C168.587 179.689 167.048 178.18 166.88 176.7C166.713 175.22 167.306 173.751 167.274 172.263C167.214 169.464 165.05 167.237 163.203 165.134C160.434 161.979 158.027 158.264 157.577 154.09C157.432 152.745 157.494 151.374 157.191 150.055C156.866 148.637 156.137 147.352 155.493 146.047C153.756 142.529 152.581 138.468 153.65 134.693C154.719 130.918 158.705 127.795 162.489 128.834C163.563 129.129 164.615 129.732 165.717 129.568C167.653 129.279 168.434 126.97 169.784 125.552C172.203 123.01 176.433 123.522 179.61 125.01M163.157 161.695C165.302 164.518 167.447 167.34 169.593 170.163C172.054 167.572 171.036 163.38 171.784 159.886C172.803 155.126 177.061 151.895 180.75 148.719C184.439 145.543 188.102 141.198 187.273 136.401C186.607 132.546 183.244 129.807 180.019 127.594C178.201 126.346 176.102 125.091 173.933 125.492C171.741 125.897 170.239 127.842 168.659 129.415C167.079 130.989 164.697 132.356 162.72 131.325C159.938 129.874 156.395 132.349 155.61 135.387C154.825 138.425 155.954 141.604 157.193 144.487C158.433 147.37 159.831 150.358 159.595 153.487C159.366 156.532 161.309 159.264 163.157 161.695Z" fill="#00160A"/>
<path fill-rule="evenodd" clip-rule="evenodd" d="M249.351 251.444C250.08 251.545 250.467 252.442 250.301 253.158C250.136 253.875 249.596 254.436 249.079 254.959C244.898 259.186 240.716 263.412 236.535 267.638C236.226 267.951 235.863 268.285 235.424 268.272C234.834 268.253 234.448 267.57 234.52 266.985C234.592 266.399 234.978 265.906 235.351 265.449C239.196 260.744 243.369 256.308 247.829 252.182C248.257 251.785 248.773 251.363 249.351 251.444V251.444Z" fill="#00160A"/>
<path fill-rule="evenodd" clip-rule="evenodd" d="M130.461 190.331C134.182 190.668 137.043 194.165 137.681 197.845C138.32 201.526 137.172 205.289 135.616 208.685C134.758 210.556 133.773 212.368 132.668 214.105C131.874 215.355 130.862 216.668 129.401 216.911C126.962 217.315 125.249 214.63 124.308 212.344C122.983 209.126 121.768 205.863 120.664 202.563C120.123 200.943 119.601 199.238 119.878 197.552C120.302 194.974 122.492 193.046 124.787 191.799C126.529 190.852 128.487 190.153 130.461 190.331M126.966 209.284C127.252 209.729 127.556 210.185 128.003 210.468C128.37 210.699 128.819 210.796 129.249 210.737C130.355 210.583 131.067 209.517 131.632 208.554C133.111 206.032 134.629 203.386 134.795 200.467C134.962 197.548 133.303 194.301 130.442 193.699C127.095 192.995 123.976 196.349 123.692 199.758C123.408 203.167 125.12 206.405 126.966 209.284Z" fill="#FFB61D"/>
<path fill-rule="evenodd" clip-rule="evenodd" d="M130.301 197.249C131.219 197.545 132.011 198.216 132.455 199.073C132.85 199.835 132.969 200.737 132.785 201.577C132.36 203.514 130.17 204.866 128.247 204.379C126.325 203.892 125.043 201.659 125.592 199.753C126.141 197.847 128.413 196.639 130.301 197.249ZM129.875 201.27C130.575 200.902 129.95 199.559 129.217 199.859C128.65 199.934 128.274 200.648 128.533 201.159C128.793 201.669 129.591 201.787 129.987 201.372L129.875 201.27Z" fill="#FFB61D"/>
<path fill-rule="evenodd" clip-rule="evenodd" d="M248.233 217.313C246.948 215.926 245.794 214.419 244.789 212.817C244.468 212.305 245.134 211.639 245.733 211.719C246.332 211.798 246.772 212.301 247.154 212.769C248.485 214.401 249.816 216.033 251.146 217.666C250.994 218.248 250.258 218.512 249.676 218.357C249.094 218.203 248.642 217.755 248.233 217.313L248.233 217.313Z" fill="#00160A"/>
<path fill-rule="evenodd" clip-rule="evenodd" d="M292.08 292.939C292.094 293.129 292.024 293.315 291.951 293.492C291.22 295.271 290.133 296.903 288.772 298.262C286.606 300.425 283.671 302.027 282.511 304.859C282.236 305.53 281.212 305.627 280.679 305.135C280.147 304.643 280.073 303.799 280.309 303.114C280.545 302.429 281.033 301.864 281.509 301.317C283.061 299.537 284.614 297.757 286.166 295.977C287.355 294.613 288.597 293.209 290.246 292.461C290.924 292.154 292.022 292.197 292.08 292.939V292.939Z" fill="#00160A"/>
<path fill-rule="evenodd" clip-rule="evenodd" d="M249.815 209.901C251.347 211.701 252.879 213.501 254.412 215.302C254.669 215.604 254.941 215.948 254.924 216.345C254.896 216.961 254.139 217.329 253.539 217.185C252.938 217.042 252.485 216.562 252.082 216.095C250.783 214.589 249.621 212.966 248.612 211.253C248.218 210.585 248.066 209.416 248.834 209.317C249.229 209.266 249.557 209.598 249.815 209.901L249.815 209.901Z" fill="#00160A"/>
<path fill-rule="evenodd" clip-rule="evenodd" d="M232.168 219.936C231.935 219.608 231.694 219.182 231.891 218.832C232.216 218.254 233.099 218.702 233.539 219.198C235.096 220.954 236.421 222.915 237.469 225.015C236.471 225.52 235.409 224.491 234.761 223.579C233.896 222.365 233.032 221.15 232.168 219.936Z" fill="#00160A"/>
<path fill-rule="evenodd" clip-rule="evenodd" d="M233.549 225.105C234.172 225.754 234.803 226.82 234.153 227.442C233.493 228.075 232.436 227.361 231.853 226.656C230.441 224.952 229.213 223.095 228.197 221.128C228.849 220.569 229.814 221.219 230.409 221.839C231.456 222.928 232.502 224.016 233.549 225.105Z" fill="#00160A"/>
<path fill-rule="evenodd" clip-rule="evenodd" d="M235.247 218.723C234.965 218.308 234.7 217.738 235.006 217.34C235.442 216.773 236.33 217.294 236.818 217.818C238.236 219.337 239.654 220.857 241.072 222.376C241.008 222.925 240.365 223.254 239.818 223.173C239.271 223.092 238.815 222.723 238.405 222.352C237.214 221.273 236.151 220.052 235.247 218.723L235.247 218.723Z" fill="#00160A"/>
<path fill-rule="evenodd" clip-rule="evenodd" d="M244.185 215.353C245.068 216.479 245.95 217.606 246.833 218.732C247.183 219.179 247.553 219.752 247.324 220.272C247.104 220.772 246.409 220.904 245.906 220.689C245.403 220.474 245.051 220.018 244.723 219.581C243.802 218.351 242.889 217.114 241.984 215.872C241.785 215.597 241.576 215.289 241.606 214.951C241.656 214.388 242.377 214.096 242.916 214.268C243.455 214.44 243.836 214.908 244.185 215.353H244.185Z" fill="#00160A"/>
<path fill-rule="evenodd" clip-rule="evenodd" d="M243.519 220.547C243.702 220.747 243.898 220.979 243.878 221.249C243.852 221.609 243.43 221.832 243.073 221.779C242.716 221.725 242.421 221.481 242.152 221.24C240.391 219.655 238.905 217.764 237.784 215.676C238.005 215.103 238.872 215.492 239.288 215.945C240.699 217.479 242.109 219.013 243.519 220.547Z" fill="#00160A"/>
<path fill-rule="evenodd" clip-rule="evenodd" d="M260.63 210.39C260.768 210.548 260.912 210.729 260.904 210.938C260.892 211.254 260.516 211.453 260.204 211.399C259.892 211.345 259.64 211.123 259.408 210.908C257.749 209.376 256.162 207.765 254.655 206.083C255.188 205.367 256.314 205.941 256.961 206.556C258.244 207.775 259.469 209.055 260.63 210.39Z" fill="#00160A"/>
<path fill-rule="evenodd" clip-rule="evenodd" d="M255.374 211.921C254.447 210.651 253.519 209.38 252.591 208.11C252.421 207.877 252.242 207.594 252.334 207.32C252.513 206.782 253.331 207.021 253.77 207.38C255.166 208.518 256.35 209.914 257.245 211.477C257.419 211.78 257.586 212.138 257.463 212.465C257.307 212.881 256.737 213.004 256.327 212.83C255.918 212.656 255.637 212.28 255.374 211.921L255.374 211.921Z" fill="#00160A"/>
<path fill-rule="evenodd" clip-rule="evenodd" d="M262.777 207.253C261.861 206.267 260.944 205.282 260.028 204.296C259.701 203.945 260.096 203.322 260.573 203.271C261.05 203.22 261.486 203.521 261.864 203.816C262.559 204.36 263.229 204.934 263.872 205.538C264.228 205.872 264.589 206.237 264.723 206.707C264.857 207.176 264.673 207.772 264.212 207.931C263.681 208.114 263.159 207.664 262.777 207.253L262.777 207.253Z" fill="#00160A"/>
<path fill-rule="evenodd" clip-rule="evenodd" d="M260.998 209.204C259.73 207.903 258.515 206.55 257.358 205.15C257.157 204.906 256.944 204.605 257.03 204.301C257.127 203.957 257.577 203.823 257.915 203.938C258.253 204.053 258.5 204.337 258.731 204.61C259.791 205.865 260.851 207.119 261.911 208.373C262.198 208.713 262.48 209.246 262.155 209.549C261.826 209.854 261.311 209.524 260.998 209.204V209.204Z" fill="#00160A"/>
<path fill-rule="evenodd" clip-rule="evenodd" d="M321.335 289.61C322.766 289.169 326.391 288.185 327.822 287.744C328.464 287.546 329.418 287.52 329.538 288.181C329.637 288.724 329.012 289.094 328.488 289.27C327.042 289.756 323.354 290.635 321.84 290.818C321.301 290.883 320.518 290.682 320.627 290.151C320.69 289.845 321.036 289.702 321.335 289.61Z" fill="#00160A"/>
<path fill-rule="evenodd" clip-rule="evenodd" d="M161.376 229.741C163.642 229.774 166.322 230.301 167.226 232.38C168.075 234.332 166.74 236.679 164.867 237.692C162.995 238.706 160.764 238.731 158.635 238.728C129.587 238.691 100.539 237.99 71.5227 236.625C69.7146 236.54 69.5434 233.931 69.9565 232.169C70.2031 231.117 70.4801 230.008 71.2389 229.239C72.3306 228.133 74.062 228.057 75.6164 228.052C96.476 227.985 117.374 227.919 138.145 229.839C141.435 230.143 144.729 230.497 148.033 230.464C152.488 230.421 156.92 229.676 161.376 229.741M164.628 235.013C165.115 234.063 164.399 232.856 163.424 232.419C162.45 231.983 161.331 232.096 160.268 232.201C146.651 233.541 132.942 231.994 119.282 231.196C109.354 230.616 99.4073 230.431 89.4639 230.246C85.3188 230.169 81.1737 230.092 77.0287 230.015C75.7063 229.991 74.2578 230.008 73.2418 230.855C72.2257 231.702 72.1917 233.698 73.4526 234.097C73.6805 234.169 73.9225 234.182 74.1613 234.193C103.345 235.612 132.566 236.249 161.784 236.102C162.855 236.097 164.14 235.967 164.628 235.013V235.013Z" fill="#00160A"/>
<path fill-rule="evenodd" clip-rule="evenodd" d="M142.831 253.221C145.421 258.891 151.002 263.089 157.168 264.005C160.07 264.437 162.05 267.075 163.702 269.499C165.419 272.018 166.679 276.287 163.84 277.399C174.857 289.548 185.874 301.696 196.891 313.845C198.171 315.256 199.414 317.612 197.93 318.807C197.379 319.25 196.624 319.32 195.917 319.344C186.84 319.648 178.276 315.4 170.42 310.842C159.109 304.278 148.305 296.839 138.138 288.614C130.71 282.604 120.039 280.885 111.1 284.258C106.462 286.007 100.648 282.44 100.107 277.513C99.5659 272.586 104.467 267.842 109.374 268.543C101.996 257.597 88.8025 250.833 75.6086 251.231C59.6839 251.712 43.6955 250.042 28.2142 246.279C26.8545 245.948 25.3944 245.535 24.5415 244.426C22.8409 242.214 24.625 239.069 26.4942 236.997C40.2663 221.734 61.4576 213.5 81.9219 215.46C82.7939 215.544 83.2682 214.485 83.4726 213.633C88.6747 191.953 93.8769 170.273 99.079 148.593C99.7063 145.979 103.685 145.617 105.657 147.445C107.628 149.273 108.062 152.187 108.289 154.865C109.983 174.835 107.024 196.334 116.952 213.744C117.414 214.555 117.937 215.385 118.749 215.845C119.549 216.299 120.513 216.327 121.432 216.343C139.813 216.669 158.193 216.994 176.573 217.32C178.863 217.36 181.675 217.088 182.6 214.993C184.971 209.624 187.342 204.255 189.712 198.886C190.467 197.178 191.507 195.24 193.352 194.958C195.996 194.555 197.669 197.876 197.584 200.549C197.498 203.222 196.599 206.062 197.776 208.463C202.095 203.874 206.486 199.225 211.885 195.976C217.285 192.727 223.917 191 229.972 192.746C224.619 201.257 219.266 209.768 213.913 218.279C218.384 221.238 218.737 228.72 214.563 232.086C212.782 233.523 214.196 236.358 215.672 238.108C220.296 243.589 224.92 249.07 229.544 254.551C225.597 256.381 221 254.498 217.119 252.531C210.183 249.017 203.413 245.177 196.838 241.027C193.647 239.013 190.13 242.788 187.234 245.207C182.637 249.047 176.289 249.811 170.33 250.418C161.164 251.352 151.998 252.287 142.831 253.221ZM158.82 241.306C164.452 241.615 170.19 242.005 175.655 240.609C181.25 239.18 186.341 235.852 189.897 231.301C190.76 230.196 192.272 229.883 193.654 229.645C198.425 228.824 203.45 228.022 208.008 229.654C210.064 230.391 212.573 229.548 213.768 227.719C214.962 225.89 214.726 223.254 213.225 221.667C211.601 221.623 211.305 223.927 210.443 225.305C209.312 227.115 206.843 227.41 204.711 227.517C196.89 227.91 189.069 228.303 181.247 228.697C179.349 228.792 176.733 228.239 176.79 226.339C176.815 225.503 177.426 224.812 178.024 224.228C180.124 222.178 182.521 220.433 185.117 219.064C153.359 219.304 121.597 218.947 89.8533 217.993C74.2437 217.523 57.5981 217.168 44.2972 225.351C43.0555 226.115 42.0845 228.368 43.5253 228.591C47.7682 229.245 52.0112 229.9 56.2541 230.554C56.7595 230.632 57.3001 230.727 57.6659 231.085C58.7623 232.156 57.2262 233.878 55.8136 234.472C49.9853 236.926 43.04 236.552 37.5092 233.486C36.2557 232.791 34.7687 231.946 33.4916 232.596C31.9488 233.382 32.1608 235.862 33.4695 236.996C34.7781 238.13 36.642 238.289 38.3701 238.396C53.8942 239.354 69.4183 240.312 84.9424 241.27C89.3061 241.539 93.6831 241.808 98.0466 241.536C118.277 240.275 138.581 240.198 158.82 241.306ZM181.481 301.488C176.048 294.012 169.859 287.086 163.039 280.85C160.806 278.808 158.839 276.496 156.879 274.191C148.307 264.114 139.735 254.037 131.163 243.959C130.308 242.954 128.828 242.821 127.508 242.779C116.25 242.422 104.954 243.259 93.871 245.271C93.0517 245.42 92.1674 245.611 91.6263 246.244C90.3714 247.713 91.9396 249.858 93.4102 251.11C108.126 263.64 123.382 275.534 139.123 286.749C142.02 288.813 144.96 290.87 148.231 292.267C154.403 294.902 160.575 297.538 166.747 300.174C171.469 302.19 177.098 304.162 181.481 301.488ZM107.779 190.227C107.552 187.283 107.551 184.288 106.742 181.448C105.285 176.333 101.398 172.316 97.5299 168.666C97.2297 168.382 96.8336 168.078 96.4459 168.219C96.0934 168.348 95.9657 168.771 95.8852 169.138C93.0021 182.268 90.1189 195.397 87.2358 208.527C86.6916 211.005 86.1443 213.518 86.2621 216.052C96.37 216.179 106.478 216.307 116.586 216.434C111.55 208.603 108.494 199.51 107.779 190.227ZM226.544 194.587C220.266 194.051 213.799 196.358 209.278 200.749C200.999 208.79 192.157 216.253 182.839 223.065C181.563 223.998 180.196 225.031 179.763 226.551C187.57 226.199 195.377 225.847 203.183 225.495C205.242 225.402 207.666 225.093 208.65 223.282C214.037 213.373 220.016 203.785 226.544 194.587ZM26.168 241.073C25.9552 241.528 25.7668 242.035 25.8849 242.523C26.0938 243.386 27.1019 243.745 27.9649 243.955C45.4195 248.19 63.5279 248.735 81.4812 249.261C83.2677 249.313 85.1212 249.353 86.7616 248.644C88.402 247.934 89.7652 246.247 89.4985 244.48C77.8284 242.863 66.0491 242.034 54.2676 242.002C47.2097 241.982 39.9508 242.216 33.3341 239.759C31.738 239.167 29.9315 237.979 30.1348 236.288C28.4349 237.512 27.0552 239.176 26.168 241.073ZM192.609 237.921C191.982 236.562 190.218 236.06 188.755 236.373C187.292 236.687 186.05 237.614 184.823 238.47C181.991 240.447 178.929 242.192 175.569 242.988C172.639 243.683 169.591 243.633 166.58 243.58C155.59 243.385 144.6 243.19 133.61 242.996C136.057 246.647 139.412 250.75 143.781 250.27C152.33 249.331 160.99 249.555 169.497 248.3C178.005 247.044 186.626 244.099 192.609 237.921ZM218.036 247.322C218.436 247.269 218.902 247.135 219.028 246.751C219.133 246.429 218.94 246.093 218.753 245.811C215.587 241.048 211.688 236.825 207.808 232.624C207.216 231.983 206.598 231.324 205.794 230.986C204.962 230.636 204.024 230.669 203.123 230.736C199.442 231.012 195.797 231.763 192.306 232.964C192.021 233.062 191.69 233.22 191.657 233.519C191.632 233.752 191.807 233.955 191.971 234.122C195.639 237.85 200.227 240.514 204.754 243.132C208.852 245.501 213.346 247.955 218.036 247.322ZM113.67 271.273C113.328 271.008 112.964 270.734 112.535 270.678C112.187 270.633 111.839 270.739 111.504 270.843C110.728 271.083 109.953 271.324 109.177 271.565C108.417 271.801 107.467 272.5 107.906 273.164C109.274 275.235 109.829 277.828 109.429 280.278C109.299 281.073 110.443 281.357 111.246 281.3C115.398 281.007 119.551 280.714 123.703 280.421C124.136 280.39 124.72 280.171 124.619 279.748C120.97 276.923 117.32 274.098 113.67 271.273ZM184.82 215.117C184.528 215.88 185.305 216.709 186.118 216.793C186.931 216.877 187.703 216.467 188.417 216.069C190.99 214.637 193.765 212.974 194.737 210.195C195.054 209.289 195.151 208.324 195.247 207.369C195.411 205.731 195.574 204.092 195.738 202.454C195.775 202.09 195.804 201.696 195.612 201.386C195.419 201.075 194.908 200.949 194.695 201.246C193.832 202.445 192.564 203.347 191.149 203.771C190.537 203.954 189.879 204.06 189.363 204.437C188.748 204.886 188.447 205.637 188.175 206.348C187.057 209.271 185.938 212.194 184.82 215.117ZM159.234 267.617C158.113 265.526 155.025 264.823 153.11 266.224C155.579 268.153 156.971 271.129 159.066 273.459C159.788 274.261 160.725 275.036 161.801 274.965C162.877 274.894 163.767 273.456 163.004 272.694C161.508 271.198 160.234 269.481 159.234 267.617ZM104.343 273.319C102.676 274.947 103.244 277.702 103.932 279.927C104.163 280.678 104.902 281.611 105.516 281.121C105.724 280.954 105.799 280.675 105.861 280.416C106.169 279.137 106.478 277.828 106.341 276.521C106.203 275.213 105.53 273.884 104.343 273.319Z" fill="#00160A"/>
<path fill-rule="evenodd" clip-rule="evenodd" d="M288.649 333.194C285.164 329.72 283.513 324.861 281.973 320.187C277.938 326.031 272.703 330.179 266.517 326.692C260.33 323.205 252.381 313.157 247.938 307.616C239.985 297.696 230.537 288.976 220.011 281.843C225.633 288.01 228.994 296.193 229.331 304.531C233.595 304.486 237.859 304.442 242.123 304.398C227.788 309.283 212.43 311.144 197.342 309.826C205.54 302.932 211.951 293.93 215.786 283.928C214.93 281.222 210.864 281.849 208.489 283.403C206.115 284.958 203.042 286.931 200.755 285.251C197.939 283.182 198.133 276.703 194.789 277.716C186.108 280.347 175.817 275.121 172.818 266.56C170.77 267.84 168.722 269.12 166.675 270.4C165.689 267.228 170.254 264.778 173.331 266.029C176.408 267.279 178.211 270.392 180.344 272.937C182.477 275.482 185.901 277.729 188.946 276.403C194.62 273.931 202.083 278.395 202.59 284.563C206.99 281.032 213.025 279.632 218.53 280.866C215.018 275.779 211.099 270.973 206.822 266.509C210.074 262.177 214.094 258.423 218.639 255.476C216.408 259.693 213.316 263.452 209.609 266.454C228.624 285.098 247.64 303.741 266.655 322.384C267.852 323.557 269.225 324.808 270.901 324.831C272.738 324.856 274.219 323.409 275.471 322.066C284.396 312.488 293.321 302.911 302.246 293.334C304.571 290.839 307.017 288.088 307.366 284.695C307.804 280.434 304.829 276.655 301.989 273.449C290.562 260.548 278.403 248.294 265.591 236.767C259.971 231.711 252.563 226.453 245.493 229.13C236.963 232.361 234.933 245.198 226.172 247.734C228.791 244.133 231.411 240.532 234.031 236.931C228.837 233.174 222.34 224.788 222.002 218.386C226.172 214.588 231.312 211.712 235.576 209.506C231.312 199.468 231.818 197.38 237.52 196.009C243.222 194.638 248.162 193.28 253.402 191.527C267.931 186.668 274.865 163.63 262.67 154.061C255.961 148.796 205.681 97.1218 184.092 78.0696C185.727 85.3616 176.121 92.237 169.746 88.3373C170.969 92.5407 168.029 97.6275 163.686 98.1821C159.344 98.7366 155.108 93.9216 156.628 89.8162C157.936 86.2825 162.122 84.8207 164.553 81.9415C166.984 79.0623 164.863 72.7343 161.56 74.5466C159.815 81.5689 149.545 84.5608 144.302 79.5742C142.457 77.8189 140.039 77.3872 137.566 77.8021C134.538 78.3103 129.298 79.4859 127.058 81.6577C123.548 85.06 122.756 90.0302 118.577 92.3397C117.911 92.7079 117.213 93.0237 116.475 93.275C111.111 95.1031 103.6 89.7944 106.385 84.8587C91.1213 98.9325 80.6428 118.106 77.0406 138.553C85.0076 140.825 86.5202 151.287 86.4977 159.571C77.5102 161.852 85.9649 179.007 78.1919 184.062C69.3311 189.825 71.7946 203.226 75.3034 213.197C66.3213 193.866 65.2406 171.002 72.3594 150.911C71.6558 163.657 70.9523 176.404 70.2487 189.15C76.2757 188.268 78.71 180.923 79.2084 174.853C79.7067 168.782 80.0858 161.639 85.1898 158.315C83.2844 153.458 82.5026 148.164 82.9227 142.964C80.7045 142.248 78.4863 141.532 76.2682 140.816C74.9357 150.201 64.5118 154.817 55.916 158.813C46.6364 163.127 37.9061 168.621 30.0022 175.121C21.5242 182.093 13.4508 191.677 14.3898 202.613C15.2926 213.129 24.3538 221.169 33.8666 225.74C23.6797 225.717 14.9365 216.655 13.2944 206.601C11.6523 196.548 16.0328 186.205 22.8815 178.664C29.7302 171.123 38.8117 165.997 48.0208 161.642C60.0804 155.939 74.7082 148.542 75.1582 135.209C75.5333 124.095 87.7231 113.203 81.8836 103.739C73.6812 90.4461 69.1059 74.9391 68.7788 59.3225C68.6175 51.6182 70.0237 42.897 76.3393 38.4815C79.4836 36.2832 83.3955 35.5157 87.2069 35.078C101.342 33.4548 115.904 35.7197 128.878 41.5593C136.535 45.0058 144.898 49.7828 152.777 46.8804C171.149 40.1132 190.692 36.5368 210.27 36.3589C212.88 36.3352 215.046 34.4188 216.864 32.5454C224.014 25.1732 229.981 16.6427 237.763 9.94002C245.545 3.23738 255.897 -1.588 265.955 0.486373C276.486 2.65799 284.347 12.0354 287.786 22.222C291.226 32.4087 291.031 43.4138 290.799 54.1631C290.383 73.4136 314.529 83.8972 320.76 102.116C324.434 112.858 336.556 117.835 347.457 121.004C358.359 124.173 370.57 127.685 376.189 137.549C381.422 146.737 378.834 158.774 372.656 167.356C366.478 175.937 357.331 181.818 348.408 187.49C333.96 196.675 338.016 220.167 326.388 232.732C320.526 239.067 322.527 249.174 325.569 257.251C328.611 265.327 332.352 274.311 328.904 282.223C327.022 269.547 323.715 257.082 319.067 245.139C312.585 249.851 315.867 259.99 319.731 267.011C324.601 275.858 329.47 284.705 334.34 293.552C336.365 297.231 338.459 301.285 337.73 305.422C336.897 310.151 332.683 313.424 328.779 316.221C319.867 322.608 310.954 328.994 302.042 335.381C298.042 338.248 292.134 336.669 288.649 333.194ZM307.67 251.653C306.889 250.773 305.458 251.203 304.39 251.696C303.319 252.19 302.249 252.685 301.178 253.179C300.944 253.288 300.685 253.398 300.435 253.331C299.966 253.203 299.886 252.507 300.181 252.12C300.477 251.733 300.977 251.577 301.44 251.427C302.426 251.107 303.389 250.714 304.317 250.251C304.848 249.987 305.418 249.638 305.562 249.063C305.706 248.488 305.046 247.789 304.558 248.126C303.121 249.116 301.505 249.845 299.811 250.266C299.303 250.392 298.511 250.233 298.631 249.723C298.677 249.528 298.858 249.4 299.028 249.293C300.539 248.343 302.188 247.613 303.907 247.133C304.526 246.96 304.372 245.918 303.782 245.662C303.192 245.407 302.518 245.666 301.929 245.922C300.504 246.544 299.079 247.165 297.655 247.786C297.348 247.92 297.006 248.094 296.924 248.418C296.85 248.708 297.018 248.999 297.179 249.251C298.215 250.873 299.251 252.494 300.287 254.116C300.444 254.363 300.624 254.627 300.902 254.718C301.205 254.816 301.529 254.68 301.818 254.545C303.79 253.625 305.741 252.66 307.67 251.653ZM210.317 75.2562C206.963 75.3134 204.444 71.5003 205.069 68.2045C205.693 64.9086 208.656 62.4423 211.865 61.4652C216.225 60.1375 221.432 60.9143 224.908 57.9653C226.469 56.6405 227.422 54.7376 228.844 53.2642C231.943 50.0527 237.335 49.3733 241.134 51.7154C241.987 49.477 239.463 47.3127 237.101 46.9141C234.739 46.5155 232.192 46.9916 230.016 45.9898C226.193 44.2299 221.692 46.4907 218.633 49.3802C215.574 52.2696 213.066 55.9095 209.295 57.778C205.524 59.6464 199.819 58.6043 198.783 54.526C198.459 53.2551 198.42 51.5713 197.18 51.1428C195.226 50.467 194.209 48.1847 194.325 46.1197C194.441 44.0547 195.431 42.1537 196.399 40.3264C192.569 40.1332 188.722 40.2521 184.911 40.6815C183.996 40.7844 182.834 41.1704 182.836 42.0905C182.84 43.992 181.075 45.3561 179.488 46.4046C176.131 48.6239 172.773 50.8431 169.416 53.0624C169.521 55.279 172.789 55.8092 174.704 54.6867C176.618 53.5641 177.966 51.5573 180.03 50.7414C181.132 50.3057 182.343 50.2522 183.527 50.204C185.55 50.1217 187.573 50.0394 189.595 49.9571C192.187 49.8517 195.684 50.5098 195.821 53.1003C195.934 55.2248 193.575 56.4662 192.065 57.9647C188.627 61.3759 188.64 67.9784 184.128 69.7391C182.525 70.3648 182.094 72.5853 182.797 74.1559C183.501 75.7266 184.967 76.7941 186.355 77.8121C210.572 95.5815 252.759 141.392 253.682 141.515C254.605 141.637 255.688 140.975 255.637 140.045C255.503 137.641 255.374 135.194 255.962 132.859C256.55 130.524 257.977 128.277 260.178 127.301C262.206 126.401 265.157 126.198 265.596 124.022C266.579 119.157 271.45 115.394 276.406 115.673C278.841 115.809 281.528 116.739 283.554 115.382C281.92 113.831 279.505 113.512 277.479 112.527C275.452 111.543 273.67 109.052 274.881 107.152C276.669 104.347 274.064 100.679 274.6 97.3952C274.827 96.0017 275.614 94.7683 276.446 93.6277C279.267 89.7613 282.83 86.4386 286.883 83.8942C287.826 83.3027 288.062 82.0572 288.21 80.9545C288.569 78.2919 288.927 75.6294 289.286 72.9668C289.536 71.1092 289.705 68.9776 288.43 67.6035C284.282 63.1318 277.376 62.9854 271.279 63.1843C265.183 63.3832 258.295 63.3048 254.071 58.9038C252.76 57.5378 250.367 58.0023 248.945 59.2524C247.523 60.5025 246.738 62.3025 245.679 63.8723C242.374 68.7763 235.973 71.3755 230.184 70.1646C227.083 69.5161 223.957 67.8822 220.913 68.7572C216.855 69.9236 214.539 75.1842 210.317 75.2562ZM326.826 195.955C327.012 196.631 327.285 197.404 327.949 197.632C328.481 197.815 329.055 197.565 329.562 197.321C331.246 196.51 332.931 195.699 334.615 194.888C335.479 194.471 336.45 193.919 336.604 192.972C339.722 173.766 338.819 153.918 333.969 135.075C332.823 130.619 331.455 126.21 329.632 121.985C327.303 116.588 324.253 111.537 321.121 106.563C316.613 99.4036 311.915 92.3638 307.035 85.4532C306.129 86.8653 305.86 88.5759 305.399 90.1889C304.939 91.8019 304.166 93.474 302.685 94.2605C301.203 95.0469 298.927 94.3794 298.664 92.7227C298.096 89.1409 294.253 86.4328 290.689 87.1032C289.922 87.2473 289.669 88.2003 289.573 88.9745C288.706 96.0099 287.839 103.045 286.971 110.081C286.908 110.592 286.882 111.201 287.284 111.523C287.619 111.791 288.097 111.731 288.526 111.725C290.951 111.689 293.067 114.222 292.598 116.602C292.13 118.983 289.212 120.525 286.981 119.572C286.018 119.161 285.264 120.466 285.022 121.485C283.565 127.635 282.108 133.785 280.651 139.936C280.222 141.75 281.788 143.462 283.473 144.259C285.158 145.056 287.084 145.344 288.63 146.386C292.503 148.994 292.336 154.926 295.468 158.39C298.019 161.211 302.74 161.724 305.838 159.517C308.61 157.542 309.815 153.935 309.816 150.532C309.817 148.211 311.259 145.951 313.363 144.972C315.467 143.993 318.124 144.345 319.9 145.839C321.63 147.294 322.414 149.555 323.122 151.702C323.435 152.648 323.748 153.681 323.412 154.62C322.863 156.155 320.977 156.61 319.434 157.137C316.601 158.105 314.118 160.065 312.519 162.596C311.738 163.832 311.209 165.564 312.175 166.661C314.536 169.339 316.897 172.018 319.258 174.697C320.493 176.098 321.764 177.565 322.26 179.366C323.782 184.895 325.304 190.425 326.826 195.955ZM86.3305 107.894C90.0302 100.988 93.7663 94.0287 98.7924 88.0198C103.194 82.7572 108.496 78.3323 113.79 73.9686C120.765 68.2195 127.782 62.5218 134.841 56.8764C137.779 54.5265 140.763 52.1617 144.189 50.6055C133.919 46.0799 123.583 41.5318 112.68 38.8735C101.777 36.2152 90.1628 35.5222 79.4042 38.7164C78.3677 39.0242 77.3266 39.3743 76.4319 39.9813C74.9209 41.0064 73.9665 42.6669 73.2506 44.3466C70.4369 50.948 70.5948 58.4276 71.5101 65.545C73.4316 80.4868 78.5156 95.0143 86.3305 107.894ZM318.212 312.821C318.115 313.824 317.033 314.767 316.125 314.331C315.696 314.126 315.434 313.689 315.198 313.276C311.576 306.952 307.953 300.628 304.331 294.304C301.994 295.183 300.87 298.001 301.133 300.485C301.395 302.968 302.72 305.195 304.012 307.332C305.989 310.6 307.967 313.869 309.944 317.137C308.904 318.207 307.231 316.784 306.461 315.506C303.717 310.951 300.973 306.396 298.229 301.842C292.989 307.232 287.749 312.621 282.509 318.011C285.921 323.346 289.334 328.68 292.747 334.014C293.551 335.272 295.273 335.673 296.732 335.357C298.19 335.041 299.451 334.156 300.667 333.291C309.813 326.787 318.958 320.282 328.104 313.777C328.799 313.283 329.544 312.718 329.748 311.89C329.962 311.023 329.518 310.145 329.088 309.363C308.4 271.727 286.319 234.856 262.907 198.85C262.218 197.791 261.347 196.62 260.085 196.536C259.244 196.48 258.465 196.938 257.747 197.38C248.462 203.094 239.176 208.808 229.891 214.522C228.172 215.58 226.453 216.638 224.734 217.696C224.286 217.971 223.804 218.29 223.654 218.793C223.477 219.389 223.829 220 224.168 220.52C227.55 225.717 231.12 230.79 234.87 235.728C239.301 230.959 244.573 225.822 251.081 225.984C256.699 226.123 261.335 230.21 265.428 234.062C267.821 236.316 270.215 238.569 272.609 240.823C268.826 233.734 264.352 227.015 259.273 220.79C259.053 219.741 260.899 220.028 261.611 220.828C268.7 228.802 272.601 239.281 280.066 246.903C287.694 254.693 295.322 262.483 302.95 270.272C306.19 273.581 309.628 277.319 309.883 281.943C310.117 286.165 307.613 290.007 305.096 293.405C309.533 298.643 313.592 304.201 317.23 310.023C317.764 310.877 318.308 311.818 318.212 312.821ZM237.427 41.1955C240.639 41.8321 243.855 42.4696 247.007 43.3594C255.124 45.6514 262.67 49.5734 270.151 53.4689C276.68 56.8687 283.245 60.2912 289.105 64.7459C289.742 48.8207 289.111 33.0081 283.812 17.9768C282.284 13.6422 278.594 8.96813 275.003 6.09865C270.788 2.72948 264.936 2.13658 259.594 2.90078C250.262 4.23572 241.763 9.23343 234.763 15.5467C227.762 21.86 222.086 29.4772 216.459 37.04C223.448 38.4252 230.438 39.8103 237.427 41.1955ZM331.171 118.494C340.187 141.497 343.132 166.85 339.627 191.307C351.07 184.75 361.297 176.08 369.638 165.865C373.795 160.774 377.647 154.783 377.376 148.217C377.153 142.82 374.083 137.839 370.03 134.27C365.977 130.701 360.999 128.367 355.996 126.333C347.949 123.061 339.638 120.437 331.171 118.494ZM313.489 157.825C315.607 156.27 317.875 154.918 320.249 153.793C320.243 152.278 320.227 150.713 319.619 149.325C319.011 147.937 317.646 146.763 316.134 146.867C314.545 146.976 313.346 148.427 312.842 149.938C312.338 151.449 312.329 153.078 311.98 154.632C311.015 158.93 307.206 162.439 302.843 163.048C298.48 163.658 293.856 161.327 291.75 157.458C290.053 154.34 289.798 150.305 287.094 148.005C285.596 146.73 283.603 146.241 281.688 145.791C281.244 145.687 280.771 145.583 280.339 145.731C279.645 145.969 279.319 146.744 279.074 147.436C277.435 152.071 275.795 156.706 274.156 161.34C273.55 163.055 273.051 165.246 274.406 166.459C286.919 177.657 292.013 195.469 304.738 206.425C305.115 206.749 305.579 207.088 306.063 206.973C312.134 205.532 318.019 203.313 323.529 200.386C323.968 200.153 324.425 199.896 324.677 199.468C324.932 199.033 324.931 198.499 324.904 197.996C324.723 194.533 323.694 191.118 321.931 188.131C321.097 186.719 320.075 185.324 319.916 183.692C319.78 182.298 320.298 180.869 319.967 179.508C319.696 178.397 318.9 177.501 318.131 176.655C315.958 174.263 313.785 171.871 311.612 169.48C310.538 168.297 309.421 167.035 309.092 165.471C308.45 162.424 310.978 159.667 313.489 157.825ZM177.297 87.4118C179.861 85.8696 181.414 82.7937 181.134 79.8153C180.725 75.4692 176.982 72.302 173.526 69.634C167.865 65.2626 154.92 54.6412 149.228 52.3581C143.536 50.0751 118.354 72.5378 109.604 81.1504C109.162 81.5853 108.701 82.0596 108.578 82.6674C108.455 83.2751 105.78 89.815 111.164 91.4046C116.549 92.9942 117.126 91.7693 119.325 89.815C121.525 87.8607 122.805 85.0883 123.839 82.3334C124.721 79.9806 127.39 78.8546 129.852 78.3531C132.315 77.8515 134.968 77.6647 137.005 76.1928C139.126 74.6599 142.088 74.749 144.506 75.7512C146.924 76.7534 148.92 78.5361 150.866 80.2864C152.491 81.7486 155.12 80.1136 156.122 78.1702C157.124 76.2268 157.544 73.829 159.297 72.5218C161.803 70.6526 165.649 72.3255 167.192 75.0445C169.386 78.9112 167.835 84.4324 163.947 86.5903C161.695 87.8408 158.398 88.6788 158.309 91.2537C158.264 92.5338 159.158 93.6599 160.153 94.4655C161.94 95.9108 164.849 96.5966 166.371 94.875C168.54 92.4217 166.118 87.2372 169.122 85.9342C171.775 84.7833 174.819 88.9026 177.297 87.4118ZM245.799 59.9666C246.697 58.5725 247.598 57.0453 249.097 56.3348C251.013 55.4266 253.314 56.148 255.131 57.2399C256.948 58.3318 258.571 59.793 260.564 60.5151C262.593 61.2502 264.816 61.1509 266.971 61.0421C270.555 60.8612 274.14 60.6804 277.724 60.4995C256.058 47.9459 231.687 39.1419 206.648 38.8945C204.537 38.8736 202.378 38.9218 200.398 39.6519C198.417 40.3821 196.618 41.919 196.111 43.9678C195.338 47.0879 198.176 50.4228 201.389 50.5223C199.711 51.751 199.969 54.6045 201.568 55.9348C203.167 57.2652 205.559 57.2548 207.479 56.4537C209.398 55.6527 210.954 54.1918 212.463 52.7612C215.273 50.0987 218.083 47.4361 220.893 44.7736C222.658 43.1001 225.408 43.0292 227.795 43.5014C230.182 43.9737 232.518 44.8878 234.95 44.8287C240.057 44.7046 244.581 49.9478 243.71 54.9815C241.417 52.8199 238.083 51.818 234.979 52.3583C231.875 52.8985 229.075 54.9681 227.649 57.7771C226.492 60.0545 223.909 61.258 221.398 61.7265C218.887 62.1951 216.293 62.0971 213.792 62.6139C211.29 63.1308 208.74 64.4476 207.717 66.788C206.693 69.1285 208.03 72.4664 210.574 72.7023C213.536 72.9771 215.266 69.4985 217.758 67.873C220.13 66.326 223.225 66.5286 225.992 67.13C228.759 67.7313 231.525 68.6795 234.346 68.4355C239.249 68.0115 243.133 64.1026 245.799 59.9666ZM325.142 202.624C319.465 204.813 313.788 207.002 308.111 209.191C307.321 209.495 306.36 210.273 306.835 210.974C312.25 218.966 316.418 227.801 319.143 237.063C319.408 237.964 320.776 237.29 321.311 236.517C326.276 229.338 330.235 221.464 333.035 213.198C333.542 211.701 334.014 210.085 333.58 208.566C332.897 206.179 330.331 204.976 328.441 203.367C327.919 202.923 327.391 202.408 326.712 202.31C326.178 202.232 325.646 202.43 325.142 202.624ZM259.651 131.636C257.043 134.405 259.234 139.096 257.894 142.656C257.597 143.445 257.117 144.277 257.391 145.075C257.527 145.472 257.833 145.784 258.13 146.081C259.057 147.01 259.984 147.94 260.912 148.869C261.639 149.598 262.821 150.354 263.579 149.656C266.698 146.788 270.476 144.641 274.536 143.429C275.706 143.08 276.971 142.765 277.787 141.858C278.507 141.058 278.739 139.945 278.944 138.889C280.09 132.974 281.229 127.058 282.36 121.14C282.448 120.678 282.533 120.183 282.345 119.752C282.145 119.295 281.684 119.015 281.233 118.801C276.666 116.625 270.524 118.855 268.415 123.453C267.699 125.014 267.369 126.821 266.167 128.048C264.415 129.835 261.366 129.814 259.651 131.636ZM168.582 55.9774C167.699 55.1759 166.786 54.1701 166.873 52.9809C166.966 51.7133 168.14 50.8392 169.204 50.1435C172.972 47.6784 176.741 45.2134 180.51 42.7483C180.418 42.0163 179.392 41.9389 178.666 42.0709C168.907 43.8456 159.346 46.7062 150.216 50.583C160.398 56.8596 170.166 63.8075 179.436 71.3666C180.561 68.8129 183.456 67.5559 185.17 65.3539C187.336 62.5721 187.498 58.441 190.161 56.1312C191.468 54.9978 193.409 54.212 193.67 52.5021C191.384 52.5181 189.098 52.534 186.812 52.55C184.031 52.5695 181.07 52.6415 178.759 54.189C176.742 55.5396 175.193 57.996 172.766 58.0653C171.168 58.1109 169.766 57.0523 168.582 55.9774ZM282.559 208.069C284.334 211.25 286.108 214.432 287.883 217.613C284.632 207.271 280.756 197.125 276.282 187.25C276.123 186.899 275.941 186.524 275.6 186.344C275.181 186.122 274.669 186.268 274.219 186.419C261.615 190.633 249.01 194.847 236.406 199.061C236.023 199.189 235.608 199.342 235.403 199.69C235.156 200.107 235.304 200.638 235.469 201.094C236.207 203.132 237.174 205.087 238.345 206.912C246.25 202.312 254.155 197.713 262.06 193.113C263.276 192.405 264.557 191.678 265.964 191.625C267.128 191.581 268.26 192.008 269.3 192.532C275.475 195.647 279.19 202.028 282.559 208.069ZM225.332 294.138C223.743 290.745 221.017 287.967 217.887 285.906C214.044 293.047 209.633 299.882 204.71 306.326C204.334 306.819 204.195 307.827 204.814 307.784C210.816 307.362 216.818 306.94 222.821 306.518C224.025 306.433 225.474 306.18 225.916 305.056C227.29 301.57 226.921 297.532 225.332 294.138ZM315.956 244.076C316.442 243.331 316.937 242.566 317.134 241.699C317.394 240.552 317.106 239.359 316.797 238.224C314.416 229.5 310.671 221.173 305.996 213.432C305.452 212.531 304.866 211.607 303.98 211.039C303.094 210.471 301.82 210.367 301.047 211.081C300.014 212.035 300.406 213.721 300.877 215.046C304.603 225.546 308.33 236.045 312.057 246.544C312.279 247.17 312.785 247.94 313.404 247.7C313.645 247.606 313.801 247.377 313.943 247.16C314.614 246.132 315.285 245.104 315.956 244.076ZM278.553 110.537C279.632 111.447 281.064 111.791 282.439 112.108C283.542 112.363 284.194 110.924 284.385 109.809C285.66 102.359 286.479 94.8403 287.297 87.3268C286.671 87.0609 286.007 87.5721 285.52 88.0453C283.766 89.7463 282.013 91.4473 280.26 93.1483C279.039 94.3324 277.763 95.6114 277.376 97.2672C276.639 100.419 279.326 104.011 277.628 106.766C276.887 107.967 277.475 109.627 278.553 110.537ZM274.735 170.131C274.314 169.657 273.86 169.17 273.257 168.974C272.655 168.779 271.869 169 271.66 169.598C269.793 174.938 267.926 180.277 266.06 185.617C265.882 186.124 266.002 186.979 266.517 186.827C269.665 185.897 272.57 184.253 275.731 183.371C278.893 182.488 282.589 182.499 285.115 184.595C282.17 179.431 278.685 174.574 274.735 170.131ZM301.7 92.0508C302.647 89.4822 303.594 86.9137 304.541 84.3452C304.724 83.8473 304.361 83.329 304.019 82.9226C300.639 78.8958 297.23 74.8411 293.137 71.5408C292.963 71.4002 292.765 71.2536 292.542 71.2655C292.117 71.2883 291.947 71.8173 291.887 72.2389C291.377 75.8204 290.867 79.4019 290.358 82.9835C290.209 84.0271 291.171 84.9341 292.179 85.2428C293.187 85.5515 294.272 85.4656 295.308 85.6585C297.22 86.0141 298.912 87.3822 299.661 89.1764C300.136 90.3147 300.487 91.8286 301.7 92.0508ZM271.477 161.234C273.267 156.656 274.909 152.02 276.398 147.337C276.499 147.021 276.599 146.679 276.492 146.365C276.208 145.529 274.97 145.745 274.18 146.141C271.076 147.696 268.092 149.488 265.261 151.497C264.909 151.747 264.525 152.061 264.512 152.492C264.502 152.818 264.712 153.105 264.912 153.362C267.015 156.056 269.205 158.681 271.477 161.234ZM297.734 236.685C297.398 236.319 296.847 236.262 296.351 236.27C295.229 236.289 294.111 236.518 293.071 236.941C292.56 237.15 292.052 237.409 291.5 237.437C290.949 237.465 290.33 237.178 290.194 236.643C291.652 235.6 293.42 234.997 295.211 234.932C296.007 234.903 296.03 233.551 295.331 233.168C294.632 232.785 293.77 233.065 293.026 233.351C291.796 233.824 290.566 234.296 289.337 234.769C288.979 234.906 288.61 234.473 288.662 234.093C288.714 233.713 289.022 233.425 289.327 233.192C290.433 232.347 291.753 231.785 293.129 231.572C293.785 231.471 293.891 230.454 293.411 229.995C292.932 229.536 292.195 229.506 291.533 229.541C289.606 229.641 287.697 230.059 285.904 230.771C287.432 233.514 288.993 236.24 290.586 238.946C290.999 239.647 291.446 240.379 292.161 240.767C293.444 239.146 295.395 238.072 297.451 237.854C297.944 237.802 298.069 237.05 297.734 236.685ZM324.065 286.174C322.887 286.475 321.719 286.818 320.566 287.202C320.25 287.307 319.885 287.472 319.832 287.801C319.8 287.996 319.894 288.188 319.986 288.363C320.663 289.666 321.341 290.968 322.018 292.27C322.293 292.798 322.846 293.418 323.36 293.116C325.05 292.123 326.938 291.467 328.88 291.198C329.414 291.125 329.764 290.552 329.776 290.012C329.788 289.473 329.549 288.963 329.316 288.477C328.916 287.643 328.477 286.765 327.69 286.279C326.632 285.625 325.27 285.867 324.065 286.174ZM328.612 300.485C328.151 300.569 327.619 300.708 327.438 301.14C327.291 301.493 327.447 301.891 327.601 302.241C328.189 303.575 328.776 304.908 329.364 306.242C329.548 306.658 329.791 307.126 330.235 307.225C330.551 307.296 330.872 307.152 331.164 307.012C332.07 306.578 332.976 306.144 333.882 305.71C334.391 305.466 334.932 305.194 335.211 304.703C335.491 304.211 335.343 303.442 334.798 303.292C334.507 303.212 334.2 303.326 333.928 303.458C333.117 303.853 332.386 304.426 331.52 304.677C330.654 304.929 329.551 304.736 329.14 303.933C331.274 303.175 333.314 302.153 335.198 300.897C335.029 299.72 333.378 299.615 332.208 299.829C331.009 300.047 329.811 300.266 328.612 300.485ZM311.178 269.865C311.525 269.487 312.028 269.303 312.511 269.131C313.84 268.658 315.169 268.186 316.499 267.713C317.189 267.468 317.02 266.319 316.368 265.983C315.716 265.647 314.929 265.857 314.228 266.073C312.708 266.541 311.188 267.01 309.667 267.478C309.469 267.539 309.26 267.606 309.121 267.76C308.804 268.113 309.017 268.667 309.243 269.085C309.845 270.197 310.448 271.31 311.05 272.423C311.121 272.553 311.199 272.691 311.333 272.754C311.495 272.83 311.684 272.772 311.853 272.714C313.703 272.074 315.553 271.435 317.403 270.795C317.844 270.643 318.374 270.363 318.337 269.898C318.286 269.263 317.356 269.258 316.748 269.451C314.845 270.055 312.943 270.659 311.04 271.262C310.704 270.875 310.831 270.242 311.178 269.865ZM334.828 197.269C333.19 198.195 331.552 199.12 329.914 200.046C329.717 200.157 329.51 200.278 329.402 200.477C329.116 201.003 329.681 201.574 330.178 201.908C331.197 202.59 332.216 203.273 333.235 203.956C333.436 204.09 333.652 204.229 333.893 204.232C334.442 204.237 334.724 203.591 334.865 203.061C335.317 201.358 335.769 199.656 336.221 197.953C336.278 197.739 336.333 197.505 336.241 197.304C336.02 196.818 335.293 197.007 334.828 197.269ZM313.261 273.678C312.866 273.78 312.415 273.928 312.267 274.309C312.157 274.592 312.257 274.912 312.386 275.187C312.717 275.896 313.242 276.513 313.889 276.953C315.607 276.297 317.326 275.641 319.045 274.985C319.783 274.703 320.657 274.228 320.626 273.439C320.604 272.873 320.07 272.435 319.515 272.326C318.96 272.217 318.389 272.359 317.841 272.5C316.315 272.892 314.788 273.285 313.261 273.678ZM288.36 211.854C288.961 213.028 290.449 213.368 291.751 213.579C293.827 213.915 295.902 214.252 297.978 214.588C298.015 213.41 296.799 212.626 295.719 212.153C293.74 211.286 291.675 210.617 289.563 210.158C289.335 210.108 289.098 210.061 288.872 210.116C288.195 210.279 288.043 211.235 288.36 211.854ZM280.664 210.966C280.827 210.904 280.992 210.841 281.132 210.738C281.751 210.283 281.563 209.213 280.93 208.776C280.298 208.338 279.443 208.397 278.709 208.627C277.976 208.858 277.292 209.24 276.542 209.409C275.529 209.638 274.203 209.627 273.815 210.591C273.484 211.413 274.244 212.345 275.11 212.536C275.976 212.726 276.864 212.407 277.693 212.092C278.684 211.717 279.674 211.341 280.664 210.966ZM284.65 218.386C285.486 217.841 285.099 216.403 284.21 215.949C283.32 215.495 282.251 215.707 281.277 215.93C280.25 216.165 279.153 216.44 278.454 217.227C277.754 218.015 277.755 219.491 278.71 219.937C280.007 220.544 281.223 218.832 282.639 218.62C283.316 218.519 284.077 218.76 284.65 218.386ZM314.018 264.438C314.298 264.344 314.595 264.238 314.776 264.004C314.977 263.743 314.984 263.371 314.87 263.062C314.604 262.339 313.77 261.954 312.999 261.968C312.228 261.982 311.502 262.309 310.801 262.631C309.909 263.04 309.017 263.45 308.125 263.859C307.635 264.084 307.08 264.39 306.999 264.924C306.917 265.466 307.415 265.959 307.951 266.074C308.488 266.188 309.041 266.027 309.565 265.866C311.055 265.407 312.539 264.931 314.018 264.438ZM318.037 283.327C319.958 282.52 321.88 281.712 323.801 280.904C323.983 280.828 324.17 280.747 324.302 280.601C324.693 280.169 324.337 279.415 323.793 279.208C323.249 279 322.642 279.161 322.083 279.323C320.784 279.699 319.486 280.075 318.188 280.451C317.469 280.659 316.666 280.938 316.363 281.622C315.95 282.557 317.095 283.724 318.037 283.327ZM331.007 294.527C331.774 294.231 331.494 292.938 330.732 292.628C329.97 292.318 329.114 292.636 328.342 292.921C326.83 293.478 325.27 293.909 323.686 294.208C323.134 294.951 323.807 296.091 324.698 296.343C325.589 296.595 326.529 296.257 327.392 295.923C328.597 295.458 329.802 294.993 331.007 294.527ZM290.106 208.429C291.654 208.835 293.202 209.241 294.75 209.646C295.339 209.801 296.248 209.714 296.204 209.107C293.531 207.258 290.455 205.995 287.254 205.433C287.084 205.403 286.905 205.376 286.743 205.434C286.188 205.636 286.4 206.496 286.818 206.914C287.683 207.777 288.924 208.119 290.106 208.429ZM295.955 202.449C296.503 203.765 297.05 205.082 297.598 206.398C297.927 207.191 298.298 208.034 299.025 208.49C299.753 208.946 300.937 208.753 301.175 207.928C301.356 207.299 300.931 206.671 300.528 206.156C298.986 204.191 297.398 202.261 295.767 200.37C295.405 200.996 295.678 201.782 295.955 202.449ZM293.304 204.923C293.594 205.023 293.948 205.113 294.183 204.915C294.458 204.683 294.358 204.233 294.172 203.926C293.493 202.809 292.12 202.367 290.863 202.01C289.173 201.53 287.483 201.05 285.793 200.57C285.268 200.42 284.873 201.187 285.118 201.674C285.364 202.162 285.93 202.381 286.446 202.559C288.732 203.347 291.018 204.135 293.304 204.923ZM315.901 277.506C315.426 277.65 314.909 277.824 314.65 278.247C314.188 278.999 314.863 279.981 315.657 280.367C317.449 278.908 319.733 278.065 322.043 278.01C322.829 277.991 322.898 276.673 322.231 276.256C321.564 275.839 320.7 276.054 319.947 276.282C318.598 276.69 317.25 277.098 315.901 277.506ZM308.394 256.93C307.305 257.218 306.215 257.506 305.125 257.794C304.126 258.059 302.873 258.713 303.113 259.718C303.317 260.574 304.513 260.768 305.315 260.408C306.118 260.047 306.73 259.348 307.529 258.98C308.835 258.377 310.673 258.597 311.406 257.359C310.782 256.473 309.442 256.653 308.394 256.93ZM267.554 199.306C267.345 199.396 267.129 199.5 266.991 199.681C266.635 200.149 267.024 200.877 267.575 201.083C268.126 201.289 268.738 201.141 269.31 201.004C271.233 200.544 273.189 200.225 275.159 200.051C275.35 198.971 273.938 198.365 272.842 198.322C271.035 198.25 269.214 198.589 267.554 199.306ZM299.42 241.198C299.985 240.599 299.666 239.266 298.858 239.424C296.717 239.842 294.653 240.652 292.799 241.801C292.365 242.683 293.564 243.599 294.536 243.446C295.507 243.292 296.287 242.58 297.196 242.208C297.958 241.896 298.855 241.796 299.42 241.198ZM300.593 221.85C300.339 221.53 299.934 221.378 299.549 221.24C297.677 220.571 295.806 219.902 293.935 219.233C293.423 219.05 292.849 218.868 292.351 219.086C291.853 219.304 291.654 220.13 292.142 220.371C294.539 221.556 297.088 222.435 299.706 222.98C299.978 223.037 300.283 223.085 300.518 222.935C300.862 222.716 300.847 222.171 300.593 221.85ZM291.782 199.834C292.049 199.993 292.4 199.693 292.407 199.383C292.414 199.073 292.206 198.803 291.996 198.575C289.985 196.381 287.036 195.357 284.214 194.414C283.498 194.175 282.451 194.094 282.242 194.819C285.504 196.328 288.69 198.003 291.782 199.834ZM333.403 297.133C333.235 296.545 332.614 296.179 332.006 296.118C331.397 296.057 330.793 296.237 330.208 296.416C329.187 296.728 328.166 297.04 327.146 297.353C326.44 297.568 325.583 297.992 325.642 298.728C325.69 299.326 326.387 299.684 326.985 299.627C327.582 299.569 328.109 299.232 328.65 298.972C329.831 298.407 331.179 298.195 332.476 298.372C333.082 298.454 333.572 297.721 333.403 297.133ZM269.378 203.779C269.369 204.331 269.801 204.858 270.344 204.958C270.696 205.023 271.055 204.926 271.399 204.83C273.386 204.276 275.373 203.723 277.36 203.169C277.392 202.61 276.909 202.128 276.374 201.966C275.838 201.804 275.263 201.887 274.71 201.971C273.267 202.191 271.824 202.41 270.381 202.63C269.834 202.713 269.386 203.226 269.378 203.779ZM302.201 243.527C302.28 243.008 301.77 242.55 301.249 242.484C300.728 242.419 300.216 242.632 299.734 242.84C298.201 243.502 296.667 244.164 295.134 244.826C294.678 245.405 295.239 246.324 295.958 246.486C296.677 246.649 297.406 246.32 298.07 246C299.118 245.495 300.165 244.99 301.213 244.485C301.644 244.277 302.129 244 302.201 243.527ZM280.269 190.426C280.445 190.741 280.797 190.908 281.126 191.056C283.859 192.28 286.591 193.504 289.324 194.729C289.809 194.946 290.516 195.094 290.756 194.619C291.013 194.11 290.379 193.623 289.854 193.4C286.914 192.151 283.975 190.902 281.035 189.653C280.887 189.591 280.73 189.526 280.571 189.553C280.215 189.612 280.092 190.111 280.269 190.426ZM294.42 225.678C294.328 225.639 294.23 225.6 294.132 225.619C294.031 225.639 293.947 225.727 293.932 225.83C294.17 227.465 296.006 228.271 297.578 228.781C299.632 229.448 301.687 230.115 303.742 230.782C304.235 230.236 303.429 229.479 302.751 229.193C299.974 228.021 297.197 226.849 294.42 225.678ZM279.227 206.513C279.456 206.081 279.111 205.541 278.677 205.317C277.917 204.927 277 205.145 276.177 205.371C275.238 205.628 274.3 205.886 273.362 206.143C272.686 206.329 271.871 206.68 271.846 207.38C271.827 207.904 272.322 208.333 272.837 208.429C273.353 208.525 273.879 208.374 274.382 208.224C275.72 207.824 277.059 207.425 278.397 207.025C278.718 206.93 279.07 206.808 279.227 206.513ZM325.745 282.6C325.187 282.277 324.486 282.466 323.872 282.662C321.919 283.287 319.966 283.911 318.013 284.536C317.581 285.227 318.367 286.147 319.181 286.196C319.995 286.244 320.733 285.769 321.451 285.384C322.759 284.684 324.2 284.233 325.673 284.064C326.314 283.99 326.303 282.923 325.745 282.6ZM288.448 223.312C287.822 223.145 287.16 223.261 286.523 223.379C285.735 223.524 284.947 223.669 284.159 223.815C283.265 223.98 282.132 224.442 282.227 225.346C282.283 225.879 282.809 226.264 283.34 226.341C283.87 226.419 284.404 226.261 284.917 226.105C286.489 225.626 288.062 225.147 289.634 224.668C289.65 224.02 289.073 223.48 288.448 223.312ZM283.084 212.718C282.647 212.272 281.926 212.24 281.326 212.413C280.725 212.587 280.187 212.928 279.6 213.144C278.909 213.398 278.161 213.473 277.471 213.733C276.782 213.994 276.116 214.515 275.997 215.242C276.255 215.847 277.124 215.78 277.76 215.608C279.444 215.155 281.128 214.701 282.812 214.248C283.416 214.085 283.521 213.165 283.084 212.718ZM280.74 220.96C280.039 221.164 280.16 222.323 280.799 222.676C281.439 223.028 282.229 222.834 282.931 222.631C284.404 222.206 285.876 221.78 287.348 221.355C287.456 220.619 286.783 219.954 286.057 219.794C285.331 219.634 284.581 219.843 283.867 220.051C282.825 220.354 281.782 220.657 280.74 220.96ZM289.094 117.374C290.03 116.7 289.886 115.309 289.914 114.155C288.693 114.006 287.357 113.883 286.328 114.555C285.299 115.228 285.023 117.044 286.125 117.59C286.503 117.778 286.944 117.773 287.367 117.764C287.966 117.751 288.607 117.725 289.094 117.374ZM291.453 215.442C290.864 215.381 290.005 215.642 290.173 216.21C290.253 216.483 290.553 216.618 290.82 216.714C293.386 217.642 296.065 218.256 298.779 218.539C299.115 218.461 299.214 217.986 299.038 217.689C298.862 217.392 298.524 217.239 298.203 217.111C296.046 216.243 293.766 215.68 291.453 215.442ZM279.512 186.959C281.731 188.1 283.993 189.157 286.291 190.129C286.738 190.318 287.244 190.505 287.693 190.321C288.141 190.137 288.313 189.386 287.869 189.191C285.256 188.048 282.643 186.904 280.03 185.761C279.615 185.579 279.023 185.449 278.799 185.843C278.553 186.274 279.07 186.732 279.512 186.959ZM301.478 225.212C301.1 224.868 300.592 224.715 300.102 224.571C298.04 223.965 295.979 223.359 293.917 222.754C293.632 222.67 293.315 222.588 293.048 222.719C292.781 222.851 292.684 223.3 292.951 223.43C295.772 224.813 298.75 225.875 301.808 226.59C302.062 226.146 301.857 225.555 301.478 225.212ZM303.095 257.027C304.565 256.507 306.035 255.987 307.505 255.467C308.152 255.239 308.846 254.974 309.217 254.396C309.122 253.879 308.562 253.553 308.036 253.542C307.51 253.532 307.011 253.76 306.535 253.982C305.246 254.584 303.958 255.186 302.67 255.788C302.204 256.006 301.668 256.326 301.66 256.839C301.902 257.311 302.596 257.204 303.095 257.027ZM291.414 227.626C291.758 227.244 291.449 226.58 290.972 226.39C290.494 226.199 289.956 226.33 289.46 226.463C287.773 226.914 286.086 227.366 284.398 227.817C284.092 228.172 284.367 228.771 284.798 228.957C285.228 229.142 285.722 229.044 286.179 228.942C287.701 228.604 289.224 228.266 290.746 227.928C290.989 227.874 291.248 227.811 291.414 227.626ZM312.031 259.246C311.683 259.17 311.328 259.307 310.998 259.442C309.199 260.177 307.401 260.912 305.602 261.647C305.081 261.86 305.291 262.744 305.82 262.937C306.349 263.13 306.926 262.88 307.433 262.635C308.978 261.887 310.524 261.139 312.07 260.391C312.245 260.306 312.433 260.209 312.519 260.034C312.677 259.715 312.379 259.323 312.031 259.246ZM298.825 230.682C298.132 230.426 297.134 230.292 296.857 230.976C299.295 232.232 301.88 233.199 304.543 233.853C305.087 233.524 304.408 232.749 303.812 232.528C302.149 231.913 300.487 231.297 298.825 230.682ZM265.292 196.997C264.826 197.525 265.284 198.528 265.989 198.522C267.599 197.471 269.479 196.837 271.397 196.699C270.789 195.939 269.736 195.65 268.765 195.726C267.795 195.802 266.879 196.189 265.984 196.571C265.732 196.678 265.472 196.791 265.292 196.997ZM304.684 236.496C305.211 236.624 306.041 236.476 305.91 235.949C303.708 234.956 301.387 234.225 299.013 233.777C298.751 234.131 298.908 234.666 299.236 234.959C299.564 235.253 300.011 235.366 300.438 235.469C301.854 235.812 303.269 236.154 304.684 236.496ZM303.018 239.255C304.251 239.636 305.528 239.877 306.815 239.97C307.073 239.629 306.926 239.108 306.611 238.82C306.295 238.531 305.863 238.416 305.449 238.311C304.135 237.977 302.822 237.643 301.509 237.309C301.032 238.13 302.112 238.974 303.018 239.255ZM331.095 309.262C330.801 309.984 331.183 310.995 331.956 311.095C332.919 310.171 333.746 309.105 334.401 307.943C334.028 307.54 333.37 307.637 332.854 307.827C332.123 308.097 331.389 308.54 331.095 309.262ZM310.531 249.29C309.904 248.707 309.13 248.282 308.301 248.068C308.168 249.243 308.842 250.466 309.906 250.982C310.161 251.105 310.463 251.19 310.724 251.079C311.382 250.799 311.054 249.778 310.531 249.29ZM307.449 241.91C307.018 241.599 306.461 241.54 305.932 241.491C305.28 241.43 304.629 241.369 303.977 241.308C303.661 242.069 304.555 242.809 305.37 242.928C306.184 243.047 307.076 242.884 307.788 243.298C308.11 242.876 307.88 242.221 307.449 241.91ZM312.499 256.233C312.755 256.451 313.069 256.646 313.403 256.609C313.521 255.01 312.441 253.522 311.095 252.648C310.937 253.975 311.482 255.366 312.499 256.233ZM308.325 245.453C307.57 245.036 306.682 244.866 305.827 244.973C306.137 245.806 306.875 246.467 307.738 246.682C308.2 246.798 308.776 246.747 309.028 246.343C309.279 245.939 308.783 245.27 308.393 245.544M266.064 193.638C265.349 193.764 264.677 194.128 264.18 194.658C265.069 194.908 266.082 194.655 266.749 194.016C266.585 193.795 266.33 193.644 266.057 193.606" fill="#00160A"/>
<path fill-rule="evenodd" clip-rule="evenodd" d="M254.411 267.687C266.195 256.367 282.735 257.964 294.303 270.384C304.364 281.19 301.972 295.465 290.548 307.438C286.237 311.91 277.585 314.876 271.323 314.15C266.023 313.623 257.769 309.716 252.867 306.115C250.597 304.448 248.522 301.01 246.564 295.79L246.275 295.009C242.798 285.367 245.147 275.175 253.025 268.779L253.394 268.485L253.477 268.371C253.545 268.287 253.624 268.206 253.714 268.131L253.857 268.021L254.017 267.919L254.353 267.749L254.411 267.687ZM274.896 306.567L271.332 310.379L271.725 310.413C275.378 310.678 278.953 310.106 282.203 308.724L282.384 308.644L282.132 308.63C279.886 308.469 277.513 307.784 275.047 306.639L274.896 306.567ZM264.497 299.408L264.164 299.102L263.812 299.445C262.43 300.791 261.026 302.17 259.59 303.592L257.963 305.207C258.424 305.543 258.903 305.87 259.402 306.19C261.656 307.659 264.09 308.773 266.608 309.496L267.15 309.645L269.755 306.901L271.705 304.838L271.577 304.762C269.127 303.258 266.719 301.411 264.497 299.408ZM281.498 299.503L277.25 304.049L277.464 304.142C280.769 305.528 283.709 305.79 286.238 304.769L286.505 304.655L286.249 304.366C284.971 302.936 283.596 301.519 282.093 300.071L281.498 299.503ZM255.903 289.911L255.149 290.652C254.063 291.709 252.967 292.759 251.862 293.801L250.123 295.426L250.269 295.774C251.446 298.488 253.086 300.849 255.223 302.915L255.3 302.987L255.542 302.742C257.089 301.172 258.688 299.581 260.353 297.953L261.648 296.69L261.296 296.336C259.359 294.366 257.701 292.437 256.307 290.488L255.903 289.911ZM288.437 292.078L283.801 297.039L283.847 297.083C285.626 298.781 287.252 300.446 288.762 302.128L289.22 302.644L289.234 302.628C290.816 300.479 290.544 296.977 288.643 292.549L288.437 292.078ZM272.216 291.406L271.872 291.729C270.286 293.217 268.679 294.744 267.04 296.319L266.578 296.763L267.009 297.144C269.276 299.125 271.448 300.789 273.617 302.13L274.028 302.377L276.938 299.289L278.941 297.154L278.279 296.567C277.078 295.506 275.779 294.395 274.147 293.023L272.216 291.406ZM296.985 282.935L290.57 289.796L290.779 290.2C291.132 290.895 291.478 291.601 291.818 292.319L292.324 293.405L292.794 294.449C293.273 295.461 293.603 296.467 293.78 297.46L293.807 297.627L293.998 297.283C296.594 292.525 297.658 287.627 297.007 283.076L296.985 282.935ZM282.875 282.86L282.546 282.423L281.376 283.405L278.117 286.101L277.533 286.59C276.933 287.097 276.395 287.56 275.898 288.001L275.32 288.519L274.724 289.07L276.068 290.192C277.568 291.45 278.873 292.568 280.094 293.646L281.255 294.681L284.983 290.688L286.756 288.779L286.742 288.753C285.628 286.788 284.303 284.779 282.875 282.86ZM263.018 283.262L262.739 282.988L262.65 283.082C261.56 284.224 260.461 285.357 259.351 286.481L258.245 287.592L258.476 287.946C259.823 289.966 261.49 291.937 263.436 293.849L263.928 294.326L264.017 294.409L264.168 294.265C265.292 293.191 266.444 292.1 267.635 290.981L269.555 289.184L269.29 288.963C267.13 287.123 265.045 285.228 263.018 283.262ZM251.163 275.982L251.056 276.159C248.417 280.596 247.603 286.111 248.828 291.365L248.938 291.814L248.994 292.028L249.547 291.512C250.704 290.423 251.852 289.323 252.992 288.213L254.151 287.073L254.04 286.872C252.142 283.338 251.148 279.75 251.163 276.064L251.163 275.982ZM272.125 272.661L270.749 274.242C269.187 276.02 267.603 277.779 265.997 279.518L265.051 280.534L265.287 280.764C267.157 282.572 269.095 284.333 271.118 286.064L272.059 286.86L272.957 286.033C273.534 285.509 274.152 284.97 274.851 284.376L275.997 283.416L278.69 281.197C279.176 280.795 279.61 280.433 280.014 280.093L280.409 279.757L280.218 279.534C279.294 278.462 278.423 277.541 277.701 276.864L277.489 276.669C276.02 275.345 274.416 274.133 272.628 272.98L272.125 272.661ZM291.571 272.468L291.426 272.721C289.94 275.242 287.89 277.603 285.103 280.173L284.87 280.385L284.953 280.501C286.171 282.212 287.326 284.002 288.42 285.87L288.817 286.557L291.935 283.189L295.881 278.907L295.789 278.683C294.882 276.528 293.534 274.504 291.743 272.642L291.571 272.468ZM254.657 274.385L254.642 274.531C254.321 277.93 254.987 281.275 256.547 284.564L256.587 284.645L257.002 284.229C257.922 283.298 258.836 282.359 259.745 281.413L260.438 280.686L260.156 280.399C258.558 278.753 256.99 277.053 255.441 275.289L254.657 274.385ZM256.207 270.625L255.969 270.74L256.03 270.814C258.14 273.332 260.291 275.716 262.516 278.004L262.745 278.236L263.673 277.24C265.303 275.474 266.91 273.688 268.495 271.882L269.267 270.994L269.184 270.949C268.792 270.736 268.39 270.523 267.978 270.31L267.351 269.989C263.678 268.185 260.965 268.385 256.576 270.449L256.207 270.625ZM279.178 264.193L277.824 265.872C276.911 266.995 275.989 268.111 275.059 269.221L274.407 269.992L274.572 270.097C277.033 271.684 279.13 273.407 280.853 275.316L281.244 275.76C281.626 276.203 282.002 276.652 282.373 277.108L282.8 277.639L282.858 277.586C285.603 275.027 287.542 272.696 288.872 270.192L288.911 270.115L288.559 269.837C285 267.041 282.393 265.378 279.635 264.356L279.178 264.193ZM273.736 263.231C270.25 263.206 267.075 263.829 264.145 265.109L263.978 265.183L264.269 265.222C264.912 265.316 265.541 265.478 266.16 265.713L266.469 265.836C268.129 266.567 269.656 267.298 271.087 268.06L271.566 268.318L272.504 267.212C273.459 266.075 274.405 264.93 275.342 263.778L275.678 263.361L275.27 263.315C274.93 263.28 274.59 263.256 274.248 263.243L273.736 263.231Z" fill="#FFB61D"/>
</svg>
