<svg width="101" height="35" viewBox="0 0 101 35" fill="none" xmlns="http://www.w3.org/2000/svg">
<rect x="25.6721" y="10.0854" width="6.72364" height="13.7529" rx="1.38839" fill="white"/>
<circle cx="29.0339" cy="5.19556" r="3.36182" fill="white"/>
<path d="M17.3425 11.7328C18.8975 11.7328 20.0998 12.2008 20.9492 13.1366C21.8131 14.0725 22.2451 15.3395 22.2451 16.9377V24H17.4721V17.5424C17.4721 17.0241 17.3137 16.621 16.997 16.333C16.6946 16.0306 16.2843 15.8795 15.7659 15.8795C15.2332 15.8795 14.8157 16.0306 14.5133 16.333C14.2109 16.621 14.0598 17.0241 14.0598 17.5424V24H9.28678V17.5424C9.28678 17.0241 9.1284 16.621 8.81164 16.333C8.50928 16.0306 8.09893 15.8795 7.5806 15.8795C7.04787 15.8795 6.63033 16.0306 6.32797 16.333C6.02561 16.621 5.87443 17.0241 5.87443 17.5424V24H1.07986V11.8192H5.87443V13.4606C6.21998 12.9423 6.68792 12.5247 7.27824 12.208C7.88296 11.8912 8.58847 11.7328 9.39476 11.7328C10.273 11.7328 11.0505 11.9272 11.7273 12.3159C12.404 12.6903 12.9439 13.223 13.347 13.9141C13.7934 13.2806 14.3621 12.7623 15.0532 12.3591C15.7443 11.9416 16.5074 11.7328 17.3425 11.7328ZM44.5644 11.7328C45.961 11.7328 47.0481 12.2008 47.8256 13.1366C48.6175 14.0725 49.0134 15.3395 49.0134 16.9377V24H44.2404V17.5424C44.2404 16.9665 44.0821 16.513 43.7653 16.1818C43.4629 15.8363 43.0526 15.6635 42.5343 15.6635C42.0015 15.6635 41.584 15.8363 41.2816 16.1818C40.9793 16.513 40.8281 16.9665 40.8281 17.5424V24H36.0335V11.8192H40.8281V13.6766C41.2024 13.1006 41.6992 12.6327 42.3183 12.2727C42.9518 11.9128 43.7005 11.7328 44.5644 11.7328ZM51.8484 17.9096C51.8484 16.6282 52.0643 15.5195 52.4963 14.5836C52.9426 13.6334 53.5473 12.9135 54.3104 12.4239C55.0735 11.92 55.9302 11.668 56.8805 11.668C57.6724 11.668 58.3491 11.8336 58.9106 12.1648C59.4866 12.4815 59.9257 12.9207 60.2281 13.4822V8.0181H65.0226V24H60.2281V22.337C59.9257 22.8985 59.4866 23.3449 58.9106 23.676C58.3491 23.9928 57.6724 24.1512 56.8805 24.1512C55.9302 24.1512 55.0735 23.9064 54.3104 23.4169C53.5473 22.9129 52.9426 22.193 52.4963 21.2572C52.0643 20.3069 51.8484 19.191 51.8484 17.9096ZM60.2497 17.9096C60.2497 17.2617 60.0841 16.7578 59.7529 16.3978C59.4218 16.0378 58.997 15.8579 58.4787 15.8579C57.9604 15.8579 57.5356 16.0378 57.2045 16.3978C56.8733 16.7578 56.7077 17.2617 56.7077 17.9096C56.7077 18.5575 56.8733 19.0614 57.2045 19.4214C57.5356 19.7814 57.9604 19.9613 58.4787 19.9613C58.997 19.9613 59.4218 19.7814 59.7529 19.4214C60.0841 19.0614 60.2497 18.5575 60.2497 17.9096ZM75.5985 10.9553C75.3393 10.9265 75.1594 10.9121 75.0586 10.9121C74.6986 10.9121 74.425 10.9841 74.2379 11.1281C74.0507 11.2577 73.9211 11.488 73.8491 11.8192H75.5985V15.8147H73.8059V24H69.0114V15.8147H67.7155V11.8192H69.0114C69.0402 10.2354 69.5369 9.01157 70.5016 8.14769C71.4806 7.2694 72.8485 6.83026 74.605 6.83026C74.8066 6.83026 75.1378 6.84466 75.5985 6.87345V10.9553ZM91.1866 11.8192V24H86.392V22.1426C86.0177 22.7186 85.5137 23.1865 84.8802 23.5465C84.2611 23.9064 83.5196 24.0864 82.6557 24.0864C81.2591 24.0864 80.1648 23.6185 79.3729 22.6826C78.5954 21.7467 78.2067 20.4797 78.2067 18.8815V11.8192H82.9797V18.2768C82.9797 18.8527 83.1308 19.3134 83.4332 19.659C83.75 19.9901 84.1675 20.1557 84.6858 20.1557C85.2186 20.1557 85.6361 19.9901 85.9385 19.659C86.2408 19.3134 86.392 18.8527 86.392 18.2768V11.8192H91.1866ZM99.5504 8.0181V24H94.7558V8.0181H99.5504Z" fill="white"/>
<path d="M80.9817 28.7975H80.3093V31.8384H78.8042V28.7975H78.3381V27.5521H78.8042V27.5139C78.8042 26.9637 78.9646 26.5435 79.2855 26.2532C79.6115 25.9577 80.0776 25.81 80.6837 25.81C80.806 25.81 80.9002 25.8126 80.9664 25.8177V27.0936C80.9257 27.0885 80.8696 27.086 80.7983 27.086C80.6353 27.086 80.5156 27.1242 80.4392 27.2006C80.3628 27.2719 80.3195 27.3891 80.3093 27.5521H80.9817V28.7975ZM85.9178 29.6456C85.9178 29.7627 85.9102 29.8799 85.8949 29.997H83.0603C83.0756 30.2313 83.1392 30.4071 83.2513 30.5242C83.3685 30.6363 83.5162 30.6923 83.6944 30.6923C83.944 30.6923 84.1223 30.5802 84.2293 30.3561H85.8261C85.7599 30.6516 85.63 30.9164 85.4365 31.1507C85.248 31.3799 85.0086 31.5608 84.7183 31.6932C84.4279 31.8256 84.107 31.8919 83.7556 31.8919C83.3328 31.8919 82.9559 31.8027 82.6248 31.6244C82.2988 31.4462 82.0416 31.1915 81.8531 30.8604C81.6697 30.5293 81.578 30.1396 81.578 29.6914C81.578 29.2432 81.6697 28.856 81.8531 28.53C82.0365 28.199 82.2911 27.9443 82.6171 27.766C82.9482 27.5877 83.3277 27.4986 83.7556 27.4986C84.1783 27.4986 84.5527 27.5852 84.8787 27.7583C85.2047 27.9315 85.4594 28.1811 85.6428 28.5071C85.8261 28.828 85.9178 29.2075 85.9178 29.6456ZM84.3897 29.2712C84.3897 29.0878 84.3286 28.9452 84.2064 28.8433C84.0841 28.7363 83.9313 28.6829 83.7479 28.6829C83.5646 28.6829 83.4143 28.7338 83.2971 28.8357C83.18 28.9324 83.1036 29.0776 83.0679 29.2712H84.3897ZM90.9316 29.6456C90.9316 29.7627 90.924 29.8799 90.9087 29.997H88.0741C88.0893 30.2313 88.153 30.4071 88.2651 30.5242C88.3822 30.6363 88.53 30.6923 88.7082 30.6923C88.9578 30.6923 89.1361 30.5802 89.2431 30.3561H90.8399C90.7737 30.6516 90.6438 30.9164 90.4503 31.1507C90.2618 31.3799 90.0224 31.5608 89.7321 31.6932C89.4417 31.8256 89.1208 31.8919 88.7694 31.8919C88.3466 31.8919 87.9696 31.8027 87.6386 31.6244C87.3126 31.4462 87.0553 31.1915 86.8669 30.8604C86.6835 30.5293 86.5918 30.1396 86.5918 29.6914C86.5918 29.2432 86.6835 28.856 86.8669 28.53C87.0502 28.199 87.3049 27.9443 87.6309 27.766C87.962 27.5877 88.3415 27.4986 88.7694 27.4986C89.1921 27.4986 89.5665 27.5852 89.8925 27.7583C90.2185 27.9315 90.4732 28.1811 90.6566 28.5071C90.8399 28.828 90.9316 29.2075 90.9316 29.6456ZM89.4035 29.2712C89.4035 29.0878 89.3424 28.9452 89.2201 28.8433C89.0979 28.7363 88.9451 28.6829 88.7617 28.6829C88.5783 28.6829 88.4281 28.7338 88.3109 28.8357C88.1938 28.9324 88.1174 29.0776 88.0817 29.2712H89.4035ZM91.6056 29.6914C91.6056 29.2482 91.6845 28.8611 91.8424 28.53C92.0054 28.199 92.227 27.9443 92.5072 27.766C92.7873 27.5877 93.098 27.4986 93.4393 27.4986C93.7144 27.4986 93.9589 27.5571 94.1728 27.6743C94.3918 27.7864 94.5625 27.9417 94.6847 28.1404V26.1844H96.1899V31.8384H94.6847V31.2424C94.5676 31.4411 94.402 31.599 94.1881 31.7161C93.9741 31.8333 93.722 31.8919 93.4317 31.8919C93.0904 31.8919 92.7797 31.8027 92.4995 31.6244C92.2245 31.4462 92.0054 31.1915 91.8424 30.8604C91.6845 30.5242 91.6056 30.1345 91.6056 29.6914ZM94.6924 29.6914C94.6924 29.4163 94.616 29.1999 94.4631 29.042C94.3154 28.8841 94.1321 28.8051 93.913 28.8051C93.6889 28.8051 93.503 28.8841 93.3553 29.042C93.2076 29.1948 93.1337 29.4112 93.1337 29.6914C93.1337 29.9665 93.2076 30.1855 93.3553 30.3485C93.503 30.5064 93.6889 30.5853 93.913 30.5853C94.1321 30.5853 94.3154 30.5064 94.4631 30.3485C94.616 30.1906 94.6924 29.9715 94.6924 29.6914ZM98.0747 31.8995C97.8098 31.8995 97.5959 31.8282 97.4329 31.6856C97.275 31.5379 97.1961 31.3519 97.1961 31.1278C97.1961 30.9037 97.275 30.7178 97.4329 30.5701C97.5959 30.4223 97.8098 30.3485 98.0747 30.3485C98.3345 30.3485 98.5433 30.4223 98.7012 30.5701C98.8642 30.7178 98.9457 30.9037 98.9457 31.1278C98.9457 31.3468 98.8642 31.5302 98.7012 31.6779C98.5433 31.8256 98.3345 31.8995 98.0747 31.8995Z" fill="white"/>
</svg>
