<svg width="99" height="19" viewBox="0 0 99 19" fill="none" xmlns="http://www.w3.org/2000/svg">
<path d="M16.3425 5.73281C17.8975 5.73281 19.0998 6.20075 19.9492 7.13663C20.8131 8.07251 21.2451 9.33954 21.2451 10.9377V18H16.4721V11.5424C16.4721 11.0241 16.3137 10.621 15.997 10.333C15.6946 10.0306 15.2843 9.87947 14.7659 9.87947C14.2332 9.87947 13.8157 10.0306 13.5133 10.333C13.2109 10.621 13.0598 11.0241 13.0598 11.5424V18H8.28678V11.5424C8.28678 11.0241 8.1284 10.621 7.81164 10.333C7.50928 10.0306 7.09893 9.87947 6.5806 9.87947C6.04787 9.87947 5.63033 10.0306 5.32797 10.333C5.02561 10.621 4.87443 11.0241 4.87443 11.5424V18H0.0798579V5.8192H4.87443V7.46059C5.21998 6.94225 5.68792 6.52471 6.27824 6.20795C6.88296 5.89119 7.58847 5.73281 8.39476 5.73281C9.27305 5.73281 10.0505 5.92719 10.7273 6.31594C11.404 6.69029 11.9439 7.22302 12.347 7.91413C12.7934 7.28061 13.3621 6.76228 14.0532 6.35913C14.7443 5.94159 15.5074 5.73281 16.3425 5.73281ZM43.5644 5.73281C44.961 5.73281 46.0481 6.20075 46.8256 7.13663C47.6175 8.07251 48.0134 9.33954 48.0134 10.9377V18H43.2404V11.5424C43.2404 10.9665 43.0821 10.513 42.7653 10.1818C42.4629 9.83627 42.0526 9.6635 41.5343 9.6635C41.0015 9.6635 40.584 9.83627 40.2816 10.1818C39.9793 10.513 39.8281 10.9665 39.8281 11.5424V18H35.0335V5.8192H39.8281V7.67656C40.2024 7.10063 40.6992 6.6327 41.3183 6.27274C41.9518 5.91279 42.7005 5.73281 43.5644 5.73281ZM50.8484 11.9096C50.8484 10.6282 51.0643 9.51952 51.4963 8.58364C51.9426 7.63336 52.5473 6.91346 53.3104 6.42392C54.0735 5.91999 54.9302 5.66802 55.8805 5.66802C56.6724 5.66802 57.3491 5.8336 57.9106 6.16476C58.4866 6.48151 58.9257 6.92066 59.2281 7.48218V2.0181H64.0226V18H59.2281V16.337C58.9257 16.8985 58.4866 17.3449 57.9106 17.676C57.3491 17.9928 56.6724 18.1512 55.8805 18.1512C54.9302 18.1512 54.0735 17.9064 53.3104 17.4169C52.5473 16.9129 51.9426 16.193 51.4963 15.2572C51.0643 14.3069 50.8484 13.191 50.8484 11.9096ZM59.2497 11.9096C59.2497 11.2617 59.0841 10.7578 58.7529 10.3978C58.4218 10.0378 57.997 9.85787 57.4787 9.85787C56.9604 9.85787 56.5356 10.0378 56.2045 10.3978C55.8733 10.7578 55.7077 11.2617 55.7077 11.9096C55.7077 12.5575 55.8733 13.0614 56.2045 13.4214C56.5356 13.7814 56.9604 13.9613 57.4787 13.9613C57.997 13.9613 58.4218 13.7814 58.7529 13.4214C59.0841 13.0614 59.2497 12.5575 59.2497 11.9096ZM74.5985 4.95532C74.3393 4.92652 74.1594 4.91212 74.0586 4.91212C73.6986 4.91212 73.425 4.98411 73.2379 5.12809C73.0507 5.25768 72.9211 5.48805 72.8491 5.8192H74.5985V9.81468H72.8059V18H68.0114V9.81468H66.7155V5.8192H68.0114C68.0402 4.23541 68.5369 3.01157 69.5016 2.14769C70.4806 1.2694 71.8485 0.830259 73.605 0.830259C73.8066 0.830259 74.1378 0.844657 74.5985 0.873452V4.95532ZM90.1866 5.8192V18H85.392V16.1426C85.0177 16.7186 84.5137 17.1865 83.8802 17.5465C83.2611 17.9064 82.5196 18.0864 81.6557 18.0864C80.2591 18.0864 79.1648 17.6185 78.3729 16.6826C77.5954 15.7467 77.2067 14.4797 77.2067 12.8815V5.8192H81.9797V12.2768C81.9797 12.8527 82.1308 13.3134 82.4332 13.659C82.75 13.9901 83.1675 14.1557 83.6858 14.1557C84.2186 14.1557 84.6361 13.9901 84.9385 13.659C85.2408 13.3134 85.392 12.8527 85.392 12.2768V5.8192H90.1866ZM98.5504 2.0181V18H93.7558V2.0181H98.5504Z" fill="white"/>
</svg>
