<svg width="59" height="59" viewBox="0 0 59 59" fill="none" xmlns="http://www.w3.org/2000/svg">
<rect width="58.5187" height="58.5187" rx="12.7823" fill="#FF0000"/>
<path d="M45.5353 21.2104C45.1532 19.7741 44.023 18.6409 42.585 18.2526C39.9849 17.5557 29.5526 17.5557 29.5526 17.5557C29.5526 17.5557 19.1256 17.5557 16.5202 18.2526C15.0875 18.6356 13.9572 19.7687 13.5699 21.2104C12.8748 23.8172 12.8748 29.2594 12.8748 29.2594C12.8748 29.2594 12.8748 34.7016 13.5699 37.3084C13.9519 38.7448 15.0822 39.8779 16.5202 40.2662C19.1256 40.9631 29.5526 40.9631 29.5526 40.9631C29.5526 40.9631 39.9849 40.9631 42.585 40.2662C44.0177 39.8832 45.1479 38.7501 45.5353 37.3084C46.2304 34.7016 46.2304 29.2594 46.2304 29.2594C46.2304 29.2594 46.2304 23.8172 45.5353 21.2104Z" fill="white"/>
<path d="M26.2202 34.2761L34.8855 29.2594L26.2202 24.2428V34.2761Z" fill="#FF0000"/>
</svg>
