<svg width="387" height="348" viewBox="0 0 387 348" fill="none" xmlns="http://www.w3.org/2000/svg">
<path fill-rule="evenodd" clip-rule="evenodd" d="M51.6887 277.281C-3.89283 238.721 62.6742 187.626 46.4134 126.529C30.1525 65.432 -9.23692 -25.6652 146.158 6.79514C303.605 39.6842 403.464 82.034 379.865 213.213C356.266 344.393 107.27 315.84 51.6887 277.281Z" fill="#00AAFF"/>
<path fill-rule="evenodd" clip-rule="evenodd" d="M292.934 340.098C289.449 336.623 287.798 331.765 286.258 327.091C282.222 332.935 273.214 333.123 267.027 329.636C260.84 326.149 256.665 320.06 252.223 314.52C244.27 304.6 210.201 280.102 209.641 272.711C209.344 268.791 220.743 261.655 220.743 261.655L200.259 249.603C200.259 249.603 189.635 257.753 183.527 258.721C166.534 261.416 154.515 259.812 154.501 262.871C154.449 273.936 221.399 330.076 200.049 329.636C168.008 328.975 109.487 266.611 90.5306 261.655C82.5919 259.58 28.1423 262.87 28.1423 249.691C28.1423 231.989 76.7768 219.81 76.7768 219.81C76.7768 219.81 64.1013 177.067 79.4429 142.113C82.9565 134.108 87.3068 124.807 87.7307 116.942C87.847 114.784 149.182 56.6866 157.062 53.7841C175.434 47.0169 194.977 43.4405 214.555 43.2626C217.165 43.2389 291.581 53.7841 325.045 109.02C331.093 119.002 358.565 193.134 330.672 239.636C326.272 246.972 326.811 256.078 329.854 264.154C332.896 272.231 336.637 281.215 333.189 289.127C331.306 276.45 328 263.986 323.352 252.043C316.87 256.755 320.152 266.894 324.016 273.914C328.886 282.761 333.755 291.608 338.625 300.455C340.65 304.135 342.744 308.189 342.015 312.325C341.182 317.055 336.967 320.327 333.064 323.125C324.151 329.511 315.239 335.898 306.326 342.285C302.326 345.151 296.419 343.573 292.934 340.098Z" fill="white"/>
<path fill-rule="evenodd" clip-rule="evenodd" d="M172.54 144.338C173.222 142.491 175.679 141.728 177.492 142.498C179.305 143.268 180.431 145.193 180.715 147.142C180.999 149.091 180.567 151.072 180.013 152.962C179.507 154.686 178.896 156.378 178.185 158.028C178.119 158.181 178.031 158.353 177.868 158.389C177.695 158.428 177.535 158.293 177.41 158.167C174.329 155.046 172.472 150.747 172.31 146.365C172.285 145.681 172.302 144.98 172.54 144.338M177.865 144.789C177.36 144.356 176.707 144.072 176.042 144.093C174.488 144.14 173.404 145.834 173.439 147.388C173.473 148.942 174.301 150.353 175.104 151.683C175.68 152.636 176.255 153.589 176.83 154.542C177.026 154.867 177.412 155.237 177.718 155.012C177.841 154.922 177.888 154.763 177.929 154.615C178.164 153.749 178.4 152.884 178.635 152.018C178.972 150.78 179.311 149.523 179.29 148.24C179.269 146.958 178.839 145.624 177.865 144.789L177.865 144.789Z" fill="#FFB61D"/>
<path fill-rule="evenodd" clip-rule="evenodd" d="M176.849 149.764C176.47 149.87 176.057 149.85 175.691 149.707C174.98 149.43 174.489 148.669 174.53 147.907C174.572 147.145 175.142 146.441 175.878 146.242C176.994 145.941 178.251 146.969 178.177 148.123C178.129 148.871 177.571 149.56 176.849 149.764Z" fill="#FFB61D"/>
<path fill-rule="evenodd" clip-rule="evenodd" d="M197.189 320.883C198.463 321.05 197.993 323.029 197.166 324.013C189.269 333.415 178.957 340.772 167.498 345.181C164.928 346.17 162.269 347.02 159.522 347.209C154.428 347.56 149.353 345.571 145.325 342.433C141.296 339.295 138.226 335.077 135.725 330.625C128.884 318.451 126.016 304.086 127.658 290.219C127.812 288.914 128.703 287.183 129.905 287.713C129.557 292.349 129.503 297.007 129.743 301.651C129.98 306.211 130.506 310.784 131.816 315.159C133.029 319.21 134.894 323.031 136.839 326.785C138.838 330.644 140.957 334.492 143.844 337.74C146.732 340.989 150.479 343.628 154.743 344.471C160.088 345.526 165.574 343.685 170.502 341.361C180.722 336.543 189.89 329.508 197.189 320.883Z" fill="#00160A"/>
<path fill-rule="evenodd" clip-rule="evenodd" d="M234.165 268.041C243.446 258.91 252.728 249.778 262.01 240.646C262.529 240.135 263.299 239.589 263.913 239.981C264.733 240.504 264.077 241.763 263.386 242.446C253.396 252.326 243.406 262.206 233.416 272.086C232.697 271.721 232.487 270.736 232.741 269.97C232.995 269.204 233.589 268.607 234.165 268.041H234.165Z" fill="#00160A"/>
<path fill-rule="evenodd" clip-rule="evenodd" d="M163.109 215.522C162.543 215.62 161.978 215.718 161.412 215.816C160.313 214.167 159.19 212.457 158.845 210.507C158.5 208.556 159.145 206.286 160.877 205.324C162.835 204.235 163.426 201.558 162.802 199.405C162.178 197.253 160.632 195.509 159.118 193.857C157.58 192.179 155.113 190.397 153.288 191.757C152.097 192.643 150.316 192.142 149.251 191.109C148.185 190.076 147.622 188.649 146.933 187.335C145.629 184.848 143.729 182.605 141.243 181.302C138.756 179.998 135.645 179.74 133.142 181.012C130.66 182.274 129.094 184.785 126.978 186.596C124.862 188.406 121.367 189.367 119.461 187.338C118.976 186.822 118.651 186.056 118.926 185.404C119.202 184.751 120.272 184.527 120.613 185.147C121.483 186.728 123.888 186.706 125.392 185.708C126.896 184.711 127.837 183.08 129.071 181.764C131.484 179.188 135.152 177.847 138.658 178.259C142.163 178.671 145.421 180.825 147.171 183.89C148.015 185.367 148.535 187.047 149.636 188.343C150.737 189.639 152.739 190.433 154.151 189.486C155.747 188.416 157.829 189.746 159.229 191.061C161.124 192.84 162.971 194.764 164.038 197.134C165.105 199.505 165.275 202.422 163.88 204.616C162.719 206.443 160.497 207.922 160.69 210.078C160.869 212.088 163.182 213.506 163.109 215.522V215.522Z" fill="#00160A"/>
<path fill-rule="evenodd" clip-rule="evenodd" d="M187.61 125.01C191.008 126.601 194.032 129.146 195.778 132.466C197.525 135.787 197.881 139.911 196.315 143.32C193.075 150.373 182.773 153.119 181.637 160.797C181.347 162.753 181.741 164.786 181.258 166.703C180.924 168.028 180.192 169.21 179.607 170.445C178.352 173.093 177.759 176.052 177.897 178.98C176.587 179.689 175.048 178.18 174.88 176.7C174.713 175.22 175.306 173.751 175.274 172.263C175.214 169.464 173.05 167.237 171.203 165.134C168.434 161.979 166.027 158.264 165.577 154.09C165.432 152.745 165.494 151.374 165.191 150.055C164.866 148.637 164.137 147.352 163.493 146.047C161.756 142.529 160.581 138.468 161.65 134.693C162.719 130.918 166.705 127.795 170.489 128.834C171.563 129.129 172.615 129.732 173.717 129.568C175.653 129.279 176.434 126.97 177.784 125.552C180.203 123.01 184.433 123.522 187.61 125.01M171.157 161.695C173.302 164.518 175.447 167.34 177.593 170.163C180.054 167.572 179.036 163.38 179.784 159.886C180.803 155.126 185.061 151.895 188.75 148.719C192.439 145.543 196.102 141.198 195.273 136.401C194.607 132.546 191.244 129.807 188.019 127.594C186.201 126.346 184.102 125.091 181.933 125.492C179.741 125.897 178.239 127.842 176.659 129.415C175.079 130.989 172.697 132.356 170.72 131.325C167.938 129.874 164.395 132.349 163.61 135.387C162.825 138.425 163.954 141.604 165.193 144.487C166.433 147.37 167.831 150.358 167.595 153.487C167.366 156.532 169.309 159.264 171.157 161.695Z" fill="#00160A"/>
<path fill-rule="evenodd" clip-rule="evenodd" d="M0.018971 96.8598C-0.12032 96.4825 0.541339 96.3762 0.896089 96.5659C0.880816 96.9583 0.277479 97.1567 0.0322765 96.8499L0.018971 96.8598Z" fill="#00160A"/>
<path fill-rule="evenodd" clip-rule="evenodd" d="M257.351 251.444C258.08 251.545 258.467 252.442 258.301 253.158C258.136 253.875 257.596 254.436 257.079 254.959C252.898 259.186 248.716 263.412 244.535 267.638C244.226 267.951 243.863 268.285 243.424 268.272C242.834 268.253 242.448 267.57 242.52 266.985C242.592 266.399 242.977 265.906 243.351 265.449C247.196 260.744 251.369 256.308 255.829 252.182C256.257 251.785 256.773 251.363 257.351 251.444V251.444Z" fill="#00160A"/>
<path fill-rule="evenodd" clip-rule="evenodd" d="M138.461 190.331C142.182 190.668 145.043 194.165 145.681 197.845C146.32 201.526 145.172 205.289 143.616 208.685C142.758 210.556 141.773 212.368 140.668 214.105C139.874 215.355 138.862 216.668 137.401 216.911C134.962 217.315 133.249 214.63 132.308 212.344C130.983 209.126 129.768 205.863 128.664 202.563C128.122 200.943 127.601 199.238 127.878 197.552C128.302 194.974 130.492 193.046 132.787 191.799C134.529 190.852 136.487 190.153 138.461 190.331M134.966 209.284C135.252 209.729 135.555 210.185 136.003 210.468C136.369 210.699 136.819 210.796 137.249 210.737C138.355 210.583 139.066 209.517 139.632 208.554C141.111 206.032 142.629 203.386 142.795 200.467C142.961 197.548 141.303 194.301 138.442 193.699C135.095 192.995 131.976 196.349 131.692 199.758C131.408 203.167 133.12 206.405 134.966 209.284Z" fill="#FFB61D"/>
<path fill-rule="evenodd" clip-rule="evenodd" d="M138.301 197.249C139.219 197.545 140.011 198.216 140.455 199.073C140.85 199.835 140.969 200.737 140.785 201.577C140.36 203.514 138.17 204.866 136.247 204.379C134.325 203.892 133.043 201.659 133.592 199.753C134.141 197.847 136.413 196.639 138.301 197.249M137.875 201.27C138.575 200.902 137.95 199.559 137.217 199.859C136.65 199.934 136.274 200.648 136.533 201.159C136.793 201.669 137.591 201.787 137.987 201.372L137.875 201.27Z" fill="#FFB61D"/>
<path fill-rule="evenodd" clip-rule="evenodd" d="M256.233 217.313C254.948 215.926 253.794 214.419 252.79 212.817C252.468 212.305 253.134 211.639 253.733 211.719C254.332 211.798 254.772 212.301 255.154 212.769C256.485 214.401 257.816 216.033 259.146 217.666C258.994 218.248 258.258 218.512 257.676 218.357C257.094 218.203 256.642 217.755 256.233 217.313L256.233 217.313Z" fill="#00160A"/>
<path fill-rule="evenodd" clip-rule="evenodd" d="M300.08 292.939C300.094 293.129 300.024 293.315 299.951 293.492C299.22 295.271 298.133 296.903 296.772 298.262C294.606 300.425 291.671 302.027 290.511 304.859C290.236 305.53 289.212 305.627 288.679 305.135C288.147 304.643 288.073 303.799 288.309 303.114C288.545 302.429 289.033 301.864 289.509 301.317C291.061 299.537 292.614 297.757 294.166 295.977C295.355 294.613 296.597 293.209 298.246 292.461C298.924 292.154 300.022 292.197 300.08 292.939V292.939Z" fill="#00160A"/>
<path fill-rule="evenodd" clip-rule="evenodd" d="M257.815 209.901C259.347 211.701 260.879 213.501 262.412 215.302C262.669 215.604 262.941 215.948 262.924 216.345C262.896 216.961 262.139 217.329 261.539 217.185C260.938 217.042 260.485 216.562 260.082 216.095C258.783 214.589 257.621 212.966 256.612 211.253C256.218 210.585 256.066 209.416 256.834 209.317C257.229 209.266 257.557 209.598 257.815 209.901L257.815 209.901Z" fill="#00160A"/>
<path fill-rule="evenodd" clip-rule="evenodd" d="M240.168 219.936C239.935 219.608 239.694 219.182 239.891 218.832C240.216 218.254 241.099 218.702 241.539 219.198C243.096 220.954 244.421 222.915 245.469 225.015C244.471 225.52 243.409 224.491 242.761 223.579C241.896 222.365 241.032 221.15 240.168 219.936Z" fill="#00160A"/>
<path fill-rule="evenodd" clip-rule="evenodd" d="M241.549 225.105C242.172 225.754 242.803 226.82 242.153 227.442C241.493 228.075 240.436 227.361 239.853 226.656C238.441 224.952 237.213 223.095 236.197 221.128C236.849 220.569 237.814 221.219 238.409 221.839C239.456 222.928 240.502 224.016 241.549 225.105Z" fill="#00160A"/>
<path fill-rule="evenodd" clip-rule="evenodd" d="M243.247 218.723C242.965 218.308 242.7 217.738 243.006 217.34C243.442 216.773 244.33 217.294 244.818 217.818C246.236 219.337 247.654 220.857 249.072 222.376C249.008 222.926 248.365 223.254 247.818 223.173C247.271 223.092 246.815 222.723 246.405 222.352C245.214 221.273 244.151 220.052 243.247 218.723L243.247 218.723Z" fill="#00160A"/>
<path fill-rule="evenodd" clip-rule="evenodd" d="M252.185 215.353C253.067 216.479 253.95 217.606 254.833 218.732C255.183 219.179 255.553 219.752 255.324 220.272C255.104 220.772 254.409 220.904 253.906 220.689C253.403 220.474 253.051 220.018 252.723 219.581C251.801 218.351 250.888 217.114 249.984 215.872C249.785 215.597 249.576 215.289 249.606 214.951C249.656 214.388 250.377 214.096 250.916 214.268C251.454 214.44 251.836 214.908 252.185 215.353H252.185Z" fill="#00160A"/>
<path fill-rule="evenodd" clip-rule="evenodd" d="M251.519 220.547C251.702 220.747 251.898 220.979 251.878 221.249C251.852 221.609 251.43 221.832 251.073 221.779C250.716 221.725 250.421 221.481 250.152 221.24C248.391 219.655 246.905 217.764 245.784 215.676C246.005 215.103 246.872 215.492 247.288 215.945C248.699 217.479 250.109 219.013 251.519 220.547Z" fill="#00160A"/>
<path fill-rule="evenodd" clip-rule="evenodd" d="M268.63 210.39C268.768 210.548 268.912 210.729 268.904 210.938C268.892 211.254 268.516 211.453 268.204 211.399C267.892 211.345 267.64 211.123 267.408 210.908C265.749 209.376 264.162 207.765 262.655 206.083C263.188 205.367 264.313 205.941 264.961 206.556C266.244 207.775 267.469 209.055 268.63 210.39V210.39Z" fill="#00160A"/>
<path fill-rule="evenodd" clip-rule="evenodd" d="M263.374 211.921C262.447 210.651 261.519 209.38 260.591 208.11C260.421 207.877 260.242 207.594 260.334 207.32C260.513 206.782 261.331 207.021 261.77 207.38C263.166 208.518 264.35 209.914 265.245 211.477C265.419 211.78 265.586 212.138 265.463 212.465C265.307 212.881 264.737 213.004 264.327 212.83C263.918 212.656 263.637 212.28 263.374 211.921L263.374 211.921Z" fill="#00160A"/>
<path fill-rule="evenodd" clip-rule="evenodd" d="M270.777 207.253C269.861 206.267 268.944 205.282 268.028 204.296C267.701 203.945 268.096 203.322 268.573 203.271C269.05 203.22 269.486 203.521 269.864 203.816C270.559 204.36 271.229 204.934 271.872 205.538C272.228 205.872 272.589 206.237 272.723 206.707C272.857 207.176 272.673 207.772 272.212 207.931C271.681 208.114 271.159 207.664 270.777 207.253L270.777 207.253Z" fill="#00160A"/>
<path fill-rule="evenodd" clip-rule="evenodd" d="M268.998 209.204C267.73 207.903 266.515 206.55 265.358 205.15C265.157 204.906 264.944 204.605 265.03 204.301C265.127 203.957 265.577 203.823 265.915 203.938C266.253 204.053 266.5 204.337 266.731 204.61C267.791 205.865 268.851 207.119 269.911 208.373C270.198 208.713 270.48 209.246 270.155 209.549C269.826 209.854 269.311 209.524 268.998 209.204V209.204Z" fill="#00160A"/>
<path fill-rule="evenodd" clip-rule="evenodd" d="M329.335 289.61C330.766 289.169 334.391 288.185 335.822 287.744C336.464 287.546 337.418 287.52 337.538 288.181C337.637 288.724 337.012 289.094 336.488 289.27C335.042 289.756 331.354 290.635 329.84 290.818C329.301 290.883 328.518 290.682 328.627 290.151C328.69 289.845 329.036 289.702 329.335 289.61Z" fill="#00160A"/>
<path fill-rule="evenodd" clip-rule="evenodd" d="M169.376 229.741C171.642 229.774 174.322 230.301 175.226 232.38C176.075 234.332 174.74 236.679 172.867 237.692C170.995 238.706 168.764 238.731 166.635 238.728C137.587 238.691 108.539 237.99 79.5229 236.625C77.7148 236.54 77.5435 233.931 77.9566 232.169C78.2032 231.117 78.4803 230.008 79.239 229.239C80.3307 228.133 82.0621 228.057 83.6165 228.052C104.476 227.985 125.374 227.919 146.145 229.839C149.435 230.143 152.729 230.497 156.033 230.464C160.488 230.421 164.92 229.676 169.376 229.741M172.628 235.013C173.115 234.063 172.399 232.856 171.425 232.419C170.45 231.983 169.331 232.096 168.268 232.201C154.651 233.541 140.942 231.994 127.282 231.196C117.354 230.616 107.407 230.431 97.464 230.246C93.3189 230.169 89.1739 230.092 85.0288 230.015C83.7064 229.991 82.2579 230.008 81.2419 230.855C80.2259 231.702 80.1918 233.698 81.4528 234.097C81.6807 234.169 81.9226 234.182 82.1614 234.193C111.345 235.612 140.566 236.249 169.784 236.102C170.855 236.097 172.14 235.967 172.628 235.013V235.013Z" fill="#00160A"/>
<path fill-rule="evenodd" clip-rule="evenodd" d="M150.831 253.221C153.421 258.891 159.002 263.089 165.168 264.005C168.07 264.437 170.05 267.075 171.702 269.499C173.419 272.018 174.679 276.287 171.84 277.399C182.857 289.548 193.874 301.696 204.891 313.845C206.171 315.256 207.414 317.612 205.93 318.807C205.379 319.25 204.624 319.32 203.917 319.344C194.84 319.648 186.276 315.4 178.42 310.842C167.109 304.278 156.305 296.839 146.138 288.614C138.71 282.604 128.039 280.885 119.1 284.258C114.462 286.007 108.648 282.44 108.107 277.513C107.566 272.586 112.467 267.842 117.374 268.543C109.996 257.597 96.8025 250.833 83.6086 251.231C67.6839 251.712 51.6955 250.042 36.2142 246.279C34.8545 245.948 33.3944 245.535 32.5415 244.426C30.8409 242.214 32.625 239.069 34.4942 236.997C48.2664 221.734 69.4576 213.5 89.9219 215.46C90.7939 215.544 91.2682 214.485 91.4726 213.633C96.6747 191.953 101.877 170.273 107.079 148.593C107.706 145.979 111.685 145.617 113.657 147.445C115.628 149.273 116.062 152.187 116.289 154.865C117.983 174.835 115.024 196.334 124.952 213.744C125.414 214.555 125.937 215.385 126.749 215.845C127.549 216.299 128.513 216.327 129.432 216.343C147.813 216.669 166.193 216.994 184.573 217.32C186.863 217.36 189.675 217.088 190.6 214.993C192.971 209.624 195.342 204.255 197.712 198.886C198.467 197.178 199.507 195.24 201.352 194.958C203.996 194.555 205.669 197.876 205.584 200.549C205.498 203.222 204.599 206.062 205.776 208.463C210.095 203.874 214.486 199.225 219.885 195.976C225.285 192.727 231.917 191 237.972 192.746C232.619 201.257 227.266 209.768 221.913 218.279C226.384 221.238 226.737 228.72 222.563 232.086C220.782 233.523 222.196 236.358 223.672 238.108C228.296 243.589 232.92 249.07 237.544 254.551C233.597 256.381 229 254.498 225.119 252.531C218.183 249.017 211.413 245.177 204.838 241.027C201.647 239.013 198.13 242.788 195.234 245.207C190.637 249.047 184.289 249.811 178.33 250.418C169.164 251.352 159.998 252.287 150.831 253.221M166.82 241.306C172.452 241.615 178.19 242.005 183.655 240.609C189.25 239.18 194.341 235.852 197.897 231.301C198.76 230.196 200.272 229.883 201.654 229.645C206.425 228.824 211.45 228.022 216.008 229.654C218.064 230.391 220.573 229.548 221.768 227.719C222.962 225.89 222.726 223.254 221.225 221.667C219.601 221.623 219.305 223.927 218.443 225.305C217.312 227.115 214.843 227.41 212.711 227.517C204.89 227.91 197.069 228.303 189.247 228.697C187.349 228.792 184.733 228.239 184.79 226.339C184.815 225.503 185.426 224.812 186.024 224.228C188.124 222.178 190.521 220.433 193.117 219.064C161.359 219.304 129.597 218.947 97.8533 217.993C82.2437 217.523 65.5981 217.168 52.2972 225.351C51.0555 226.115 50.0845 228.368 51.5253 228.591C55.7682 229.245 60.0112 229.9 64.2541 230.554C64.7595 230.632 65.3001 230.727 65.6659 231.085C66.7623 232.156 65.2262 233.878 63.8136 234.472C57.9853 236.926 51.04 236.552 45.5092 233.486C44.2557 232.791 42.7687 231.946 41.4916 232.596C39.9488 233.382 40.1608 235.862 41.4695 236.996C42.7781 238.13 44.642 238.289 46.3701 238.396C61.8942 239.354 77.4183 240.312 92.9424 241.27C97.3061 241.539 101.683 241.808 106.047 241.536C126.277 240.275 146.581 240.198 166.82 241.306M189.481 301.488C184.048 294.012 177.859 287.086 171.039 280.85C168.806 278.808 166.839 276.496 164.879 274.191C156.307 264.114 147.735 254.037 139.163 243.959C138.308 242.954 136.828 242.821 135.508 242.779C124.25 242.422 112.954 243.259 101.871 245.271C101.052 245.42 100.167 245.611 99.6263 246.244C98.3714 247.713 99.9396 249.858 101.41 251.11C116.126 263.64 131.382 275.534 147.123 286.749C150.02 288.813 152.96 290.87 156.231 292.267C162.403 294.902 168.575 297.538 174.747 300.174C179.469 302.19 185.098 304.162 189.481 301.488M115.779 190.227C115.552 187.283 115.551 184.288 114.742 181.448C113.285 176.333 109.398 172.316 105.53 168.666C105.23 168.382 104.834 168.078 104.446 168.219C104.093 168.348 103.966 168.771 103.885 169.138C101.002 182.268 98.1189 195.397 95.2358 208.527C94.6916 211.005 94.1443 213.518 94.2621 216.052C104.37 216.179 114.478 216.307 124.586 216.434C119.55 208.603 116.494 199.51 115.779 190.227M234.544 194.587C228.266 194.051 221.799 196.358 217.278 200.749C208.999 208.79 200.157 216.253 190.839 223.065C189.563 223.998 188.196 225.031 187.763 226.551C195.57 226.199 203.377 225.847 211.183 225.495C213.242 225.402 215.666 225.093 216.65 223.282C222.037 213.373 228.016 203.785 234.544 194.587M34.168 241.073C33.9552 241.528 33.7668 242.035 33.8849 242.523C34.0938 243.386 35.1019 243.745 35.9649 243.955C53.4195 248.19 71.5279 248.735 89.4812 249.261C91.2677 249.313 93.1212 249.353 94.7616 248.644C96.402 247.934 97.7652 246.247 97.4985 244.48C85.8284 242.863 74.0491 242.034 62.2676 242.002C55.2097 241.982 47.9508 242.216 41.3341 239.759C39.738 239.167 37.9315 237.979 38.1348 236.288C36.4349 237.512 35.0552 239.176 34.168 241.073M200.609 237.921C199.982 236.562 198.218 236.06 196.755 236.373C195.292 236.687 194.05 237.614 192.823 238.47C189.991 240.447 186.929 242.192 183.569 242.988C180.639 243.683 177.591 243.633 174.58 243.58C163.59 243.385 152.6 243.19 141.61 242.996C144.057 246.647 147.412 250.75 151.781 250.27C160.33 249.331 168.99 249.555 177.497 248.3C186.005 247.044 194.626 244.099 200.609 237.921M226.036 247.322C226.436 247.269 226.902 247.135 227.028 246.751C227.133 246.429 226.94 246.093 226.753 245.811C223.587 241.048 219.688 236.825 215.808 232.624C215.216 231.983 214.598 231.324 213.794 230.986C212.962 230.636 212.024 230.669 211.123 230.736C207.442 231.012 203.797 231.763 200.306 232.964C200.021 233.062 199.69 233.22 199.657 233.519C199.632 233.752 199.807 233.955 199.971 234.122C203.639 237.85 208.227 240.514 212.754 243.132C216.852 245.501 221.345 247.955 226.036 247.322M121.67 271.273C121.328 271.008 120.964 270.734 120.535 270.678C120.187 270.633 119.839 270.739 119.504 270.843C118.728 271.083 117.953 271.324 117.177 271.565C116.417 271.801 115.467 272.5 115.906 273.164C117.274 275.235 117.829 277.828 117.429 280.278C117.299 281.073 118.443 281.357 119.246 281.3C123.398 281.007 127.551 280.714 131.703 280.421C132.136 280.39 132.72 280.171 132.619 279.748C128.97 276.923 125.32 274.098 121.67 271.273M192.82 215.117C192.528 215.88 193.305 216.709 194.118 216.793C194.931 216.877 195.703 216.467 196.417 216.069C198.99 214.637 201.765 212.974 202.737 210.195C203.054 209.289 203.151 208.324 203.247 207.369C203.411 205.731 203.574 204.092 203.738 202.454C203.775 202.09 203.804 201.696 203.612 201.386C203.419 201.075 202.908 200.949 202.695 201.246C201.832 202.445 200.564 203.347 199.149 203.771C198.537 203.954 197.879 204.06 197.363 204.437C196.748 204.886 196.447 205.637 196.175 206.348C195.057 209.271 193.938 212.194 192.82 215.117M167.234 267.617C166.113 265.526 163.025 264.823 161.11 266.224C163.579 268.153 164.971 271.129 167.066 273.459C167.788 274.261 168.725 275.036 169.801 274.965C170.877 274.894 171.767 273.456 171.004 272.694C169.508 271.198 168.234 269.481 167.234 267.617M112.343 273.319C110.676 274.946 111.244 277.702 111.932 279.927C112.163 280.678 112.902 281.611 113.516 281.121C113.724 280.954 113.799 280.675 113.861 280.416C114.169 279.137 114.478 277.828 114.341 276.521C114.203 275.213 113.53 273.884 112.343 273.319Z" fill="#00160A"/>
<path fill-rule="evenodd" clip-rule="evenodd" d="M296.649 333.194C293.164 329.72 291.513 324.861 289.973 320.187C285.938 326.031 280.703 330.179 274.517 326.692C268.33 323.205 260.381 313.157 255.938 307.616C247.985 297.696 238.537 288.976 228.011 281.843C233.633 288.01 236.994 296.193 237.331 304.531C241.595 304.486 245.859 304.442 250.123 304.398C235.788 309.283 220.43 311.144 205.342 309.826C213.54 302.932 219.951 293.93 223.786 283.928C222.93 281.222 218.864 281.849 216.489 283.403C214.115 284.958 211.042 286.931 208.755 285.251C205.939 283.182 206.133 276.703 202.789 277.716C194.108 280.347 183.817 275.121 180.818 266.56C178.77 267.84 176.722 269.12 174.675 270.4C173.689 267.228 178.254 264.778 181.331 266.029C184.408 267.279 186.211 270.392 188.344 272.937C190.477 275.482 193.901 277.729 196.946 276.403C202.62 273.931 210.083 278.395 210.59 284.563C214.99 281.032 221.025 279.632 226.53 280.866C223.018 275.779 219.099 270.973 214.822 266.509C218.074 262.177 222.094 258.423 226.639 255.476C224.408 259.693 221.316 263.452 217.609 266.455C236.624 285.098 255.64 303.741 274.655 322.384C275.852 323.557 277.225 324.808 278.901 324.831C280.738 324.856 282.219 323.409 283.471 322.066C292.396 312.488 301.321 302.911 310.246 293.334C312.571 290.839 315.017 288.088 315.366 284.695C315.804 280.434 312.829 276.655 309.989 273.449C298.562 260.548 286.403 248.294 273.591 236.767C267.971 231.711 260.563 226.453 253.493 229.13C244.963 232.361 242.933 245.198 234.172 247.734C236.791 244.133 239.411 240.532 242.031 236.931C236.837 233.174 230.34 224.788 230.002 218.386C234.172 214.588 239.312 211.712 243.576 209.506C239.312 199.468 239.818 197.38 245.52 196.009C251.222 194.638 256.162 193.28 261.402 191.527C275.931 186.668 282.865 163.63 270.67 154.061C263.961 148.796 213.681 97.1218 192.092 78.0696C193.727 85.3616 184.121 92.237 177.746 88.3373C178.969 92.5407 176.029 97.6275 171.686 98.1821C167.344 98.7366 163.108 93.9216 164.628 89.8162C165.936 86.2825 170.122 84.8207 172.553 81.9415C174.984 79.0623 172.863 72.7343 169.56 74.5466C167.815 81.5689 157.545 84.5608 152.302 79.5742C150.457 77.8189 148.039 77.3872 145.566 77.8021C142.538 78.3103 137.298 79.4859 135.058 81.6577C131.548 85.06 130.756 90.0302 126.577 92.3397C125.911 92.7079 125.213 93.0237 124.475 93.275C119.111 95.103 111.6 89.7944 114.385 84.8587C99.1213 98.9325 88.6428 118.106 85.0406 138.553C93.0076 140.825 94.5202 151.287 94.4977 159.571C85.5102 161.852 93.9649 179.007 86.1919 184.062C77.3311 189.825 79.7946 203.226 83.3034 213.197C74.3213 193.866 73.2406 171.002 80.3594 150.911C79.6558 163.657 78.9523 176.404 78.2487 189.15C84.2757 188.268 86.71 180.923 87.2084 174.853C87.7067 168.782 88.0858 161.639 93.1897 158.315C91.2844 153.458 90.5026 148.164 90.9227 142.964C88.7045 142.248 86.4863 141.532 84.2682 140.816C82.9357 150.201 72.5118 154.817 63.916 158.813C54.6364 163.127 45.9061 168.621 38.0022 175.121C29.5242 182.093 21.4508 191.677 22.3898 202.613C23.2926 213.129 32.3538 221.169 41.8666 225.74C31.6797 225.717 22.9365 216.655 21.2944 206.601C19.6523 196.548 24.0328 186.205 30.8815 178.664C37.7302 171.123 46.8117 165.997 56.0208 161.642C68.0804 155.939 82.7082 148.542 83.1582 135.209C83.5333 124.095 95.7231 113.203 89.8836 103.739C81.6812 90.4461 77.1059 74.9391 76.7788 59.3225C76.6175 51.6182 78.0237 42.897 84.3393 38.4815C87.4835 36.2832 91.3955 35.5157 95.2069 35.078C109.342 33.4548 123.904 35.7197 136.878 41.5593C144.535 45.0058 152.898 49.7828 160.777 46.8804C179.149 40.1132 198.692 36.5368 218.27 36.3589C220.88 36.3352 223.046 34.4188 224.864 32.5454C232.014 25.1732 237.981 16.6427 245.763 9.94002C253.545 3.23738 263.897 -1.588 273.955 0.486373C284.486 2.65799 292.347 12.0354 295.786 22.222C299.226 32.4087 299.031 43.4138 298.799 54.1631C298.383 73.4136 322.529 83.8972 328.76 102.116C332.434 112.858 344.556 117.835 355.457 121.004C366.359 124.173 378.57 127.685 384.189 137.549C389.422 146.737 386.834 158.774 380.656 167.356C374.478 175.937 365.331 181.818 356.408 187.49C341.96 196.675 346.016 220.167 334.388 232.732C328.526 239.067 330.527 249.174 333.569 257.251C336.611 265.327 340.352 274.311 336.904 282.223C335.022 269.547 331.715 257.082 327.067 245.139C320.585 249.851 323.867 259.99 327.731 267.011C332.601 275.858 337.47 284.705 342.34 293.552C344.365 297.231 346.459 301.285 345.73 305.422C344.897 310.151 340.683 313.424 336.779 316.221C327.867 322.608 318.954 328.994 310.042 335.381C306.042 338.248 300.134 336.669 296.649 333.194ZM315.67 251.653C314.889 250.773 313.458 251.203 312.39 251.696C311.319 252.19 310.249 252.685 309.178 253.179C308.944 253.288 308.685 253.398 308.435 253.331C307.966 253.203 307.886 252.507 308.181 252.12C308.477 251.733 308.977 251.577 309.44 251.427C310.426 251.107 311.389 250.714 312.317 250.251C312.848 249.987 313.418 249.638 313.562 249.063C313.706 248.488 313.046 247.789 312.558 248.126C311.121 249.116 309.505 249.845 307.811 250.266C307.303 250.392 306.511 250.233 306.631 249.723C306.677 249.528 306.858 249.4 307.028 249.293C308.539 248.343 310.188 247.613 311.907 247.133C312.526 246.96 312.372 245.918 311.782 245.662C311.192 245.407 310.518 245.666 309.929 245.922C308.504 246.544 307.079 247.165 305.655 247.786C305.348 247.92 305.006 248.094 304.924 248.418C304.85 248.708 305.018 248.999 305.179 249.251C306.215 250.873 307.251 252.494 308.287 254.116C308.444 254.363 308.624 254.627 308.902 254.718C309.205 254.816 309.529 254.68 309.818 254.545C311.79 253.625 313.741 252.66 315.67 251.653ZM218.317 75.2562C214.963 75.3134 212.444 71.5003 213.069 68.2045C213.693 64.9086 216.656 62.4423 219.865 61.4652C224.225 60.1375 229.432 60.9143 232.908 57.9653C234.469 56.6405 235.422 54.7376 236.844 53.2642C239.943 50.0527 245.335 49.3733 249.134 51.7154C249.987 49.477 247.463 47.3127 245.101 46.9141C242.739 46.5155 240.192 46.9916 238.016 45.9898C234.194 44.2299 229.692 46.4907 226.633 49.3802C223.574 52.2696 221.066 55.9095 217.295 57.778C213.524 59.6464 207.819 58.6043 206.783 54.526C206.459 53.2551 206.42 51.5713 205.18 51.1428C203.226 50.467 202.209 48.1847 202.325 46.1197C202.441 44.0547 203.431 42.1537 204.399 40.3264C200.569 40.1332 196.722 40.2521 192.911 40.6815C191.996 40.7844 190.834 41.1704 190.836 42.0905C190.84 43.992 189.075 45.3561 187.488 46.4046C184.131 48.6239 180.773 50.8431 177.416 53.0624C177.521 55.279 180.789 55.8092 182.704 54.6867C184.618 53.5641 185.966 51.5573 188.03 50.7414C189.132 50.3057 190.343 50.2522 191.527 50.204C193.55 50.1217 195.573 50.0394 197.595 49.9571C200.187 49.8517 203.684 50.5098 203.821 53.1003C203.934 55.2248 201.575 56.4662 200.065 57.9647C196.627 61.3759 196.64 67.9784 192.128 69.7391C190.525 70.3648 190.094 72.5853 190.797 74.1559C191.501 75.7266 192.967 76.7941 194.355 77.8122C218.572 95.5815 260.759 141.392 261.682 141.515C262.605 141.637 263.688 140.975 263.637 140.045C263.503 137.641 263.374 135.194 263.962 132.859C264.55 130.524 265.977 128.277 268.178 127.301C270.206 126.401 273.157 126.198 273.596 124.022C274.579 119.157 279.45 115.394 284.406 115.673C286.841 115.809 289.528 116.739 291.554 115.382C289.92 113.831 287.505 113.512 285.479 112.527C283.452 111.543 281.67 109.052 282.881 107.152C284.669 104.347 282.064 100.679 282.6 97.3952C282.827 96.0017 283.614 94.7683 284.446 93.6277C287.267 89.7613 290.83 86.4386 294.883 83.8942C295.826 83.3027 296.062 82.0572 296.21 80.9545C296.569 78.2919 296.927 75.6294 297.286 72.9668C297.536 71.1092 297.705 68.9776 296.43 67.6035C292.282 63.1318 285.376 62.9854 279.279 63.1843C273.183 63.3832 266.295 63.3048 262.071 58.9038C260.76 57.5378 258.367 58.0023 256.945 59.2524C255.523 60.5025 254.738 62.3025 253.679 63.8723C250.374 68.7763 243.973 71.3755 238.184 70.1646C235.083 69.5161 231.957 67.8822 228.913 68.7572C224.855 69.9236 222.539 75.1842 218.317 75.2562ZM334.826 195.955C335.012 196.631 335.285 197.404 335.949 197.632C336.481 197.815 337.055 197.565 337.562 197.321C339.246 196.51 340.931 195.699 342.615 194.888C343.479 194.471 344.45 193.919 344.604 192.972C347.722 173.766 346.819 153.918 341.969 135.075C340.823 130.619 339.455 126.21 337.632 121.985C335.303 116.588 332.252 111.537 329.121 106.563C324.613 99.4036 319.915 92.3638 315.035 85.4532C314.129 86.8653 313.86 88.5759 313.399 90.1889C312.939 91.8019 312.166 93.474 310.685 94.2605C309.203 95.0469 306.927 94.3794 306.664 92.7227C306.096 89.1409 302.253 86.4328 298.689 87.1032C297.922 87.2473 297.669 88.2003 297.573 88.9745C296.706 96.0099 295.839 103.045 294.971 110.081C294.908 110.592 294.882 111.201 295.284 111.523C295.619 111.791 296.097 111.731 296.526 111.725C298.951 111.689 301.067 114.222 300.598 116.602C300.13 118.983 297.212 120.525 294.981 119.572C294.018 119.161 293.264 120.466 293.022 121.485C291.565 127.635 290.108 133.785 288.651 139.936C288.222 141.75 289.788 143.462 291.473 144.259C293.158 145.056 295.084 145.344 296.63 146.386C300.503 148.994 300.336 154.926 303.468 158.39C306.019 161.211 310.74 161.724 313.838 159.517C316.61 157.542 317.815 153.935 317.816 150.532C317.817 148.211 319.259 145.951 321.363 144.972C323.467 143.993 326.124 144.345 327.9 145.839C329.63 147.294 330.414 149.555 331.122 151.702C331.435 152.648 331.748 153.681 331.412 154.62C330.863 156.155 328.977 156.61 327.434 157.137C324.601 158.105 322.118 160.065 320.519 162.596C319.738 163.832 319.209 165.564 320.175 166.661C322.536 169.339 324.897 172.018 327.258 174.697C328.493 176.098 329.764 177.565 330.26 179.366C331.782 184.895 333.304 190.425 334.826 195.955ZM94.3305 107.894C98.0302 100.988 101.766 94.0287 106.792 88.0198C111.194 82.7572 116.496 78.3323 121.79 73.9686C128.765 68.2195 135.782 62.5218 142.841 56.8764C145.779 54.5265 148.763 52.1617 152.189 50.6055C141.919 46.0799 131.583 41.5318 120.68 38.8735C109.777 36.2152 98.1628 35.5222 87.4042 38.7164C86.3677 39.0242 85.3266 39.3743 84.4319 39.9813C82.9209 41.0064 81.9665 42.6669 81.2506 44.3466C78.4369 50.948 78.5948 58.4276 79.5101 65.545C81.4316 80.4868 86.5156 95.0143 94.3305 107.894ZM326.212 312.821C326.115 313.824 325.033 314.767 324.125 314.331C323.696 314.126 323.434 313.689 323.198 313.276C319.575 306.952 315.953 300.628 312.331 294.304C309.994 295.183 308.87 298.001 309.133 300.485C309.395 302.968 310.72 305.195 312.012 307.332C313.989 310.6 315.967 313.869 317.944 317.137C316.904 318.207 315.231 316.784 314.461 315.506C311.717 310.951 308.973 306.396 306.229 301.842C300.989 307.232 295.749 312.621 290.509 318.011C293.921 323.346 297.334 328.68 300.747 334.014C301.551 335.272 303.273 335.673 304.732 335.357C306.19 335.041 307.451 334.156 308.667 333.291C317.813 326.787 326.958 320.282 336.104 313.777C336.799 313.283 337.544 312.718 337.748 311.89C337.962 311.023 337.518 310.145 337.088 309.363C316.4 271.727 294.319 234.856 270.907 198.85C270.218 197.791 269.347 196.62 268.085 196.536C267.244 196.48 266.465 196.938 265.747 197.38C256.462 203.094 247.177 208.808 237.891 214.522C236.172 215.58 234.453 216.638 232.734 217.696C232.286 217.971 231.804 218.29 231.654 218.793C231.477 219.389 231.829 220 232.168 220.52C235.55 225.717 239.12 230.79 242.87 235.728C247.301 230.959 252.573 225.822 259.081 225.984C264.699 226.123 269.335 230.21 273.428 234.062C275.821 236.316 278.215 238.569 280.609 240.823C276.826 233.734 272.352 227.015 267.273 220.79C267.053 219.741 268.899 220.028 269.611 220.828C276.7 228.802 280.601 239.281 288.066 246.903C295.694 254.693 303.322 262.483 310.95 270.272C314.19 273.581 317.628 277.319 317.883 281.943C318.117 286.165 315.613 290.007 313.096 293.405C317.533 298.643 321.592 304.201 325.23 310.023C325.764 310.877 326.308 311.818 326.212 312.821ZM245.427 41.1955C248.639 41.8321 251.855 42.4696 255.007 43.3594C263.124 45.6514 270.67 49.5734 278.151 53.4689C284.68 56.8687 291.245 60.2912 297.105 64.7459C297.742 48.8207 297.111 33.0081 291.812 17.9768C290.284 13.6422 286.594 8.96813 283.003 6.09865C278.788 2.72948 272.936 2.13658 267.594 2.90078C258.262 4.23572 249.763 9.23343 242.763 15.5467C235.762 21.86 230.086 29.4772 224.459 37.04C231.448 38.4252 238.438 39.8103 245.427 41.1955ZM339.171 118.494C348.187 141.497 351.132 166.85 347.627 191.307C359.07 184.75 369.297 176.08 377.638 165.865C381.795 160.774 385.647 154.783 385.376 148.217C385.153 142.82 382.083 137.839 378.03 134.27C373.977 130.701 368.999 128.367 363.996 126.333C355.949 123.061 347.638 120.437 339.171 118.494ZM321.489 157.825C323.607 156.27 325.875 154.918 328.249 153.793C328.243 152.278 328.227 150.713 327.619 149.325C327.011 147.937 325.646 146.763 324.134 146.867C322.545 146.976 321.346 148.427 320.842 149.938C320.338 151.449 320.329 153.078 319.98 154.632C319.015 158.93 315.206 162.439 310.843 163.048C306.48 163.658 301.856 161.327 299.75 157.458C298.053 154.34 297.798 150.305 295.094 148.005C293.596 146.73 291.603 146.241 289.688 145.791C289.244 145.687 288.771 145.583 288.339 145.731C287.645 145.969 287.319 146.744 287.074 147.436C285.435 152.071 283.795 156.706 282.156 161.34C281.55 163.055 281.051 165.246 282.406 166.459C294.919 177.657 300.013 195.469 312.738 206.425C313.115 206.749 313.579 207.088 314.063 206.973C320.134 205.532 326.019 203.313 331.529 200.386C331.968 200.153 332.425 199.896 332.677 199.468C332.932 199.033 332.931 198.499 332.904 197.996C332.723 194.533 331.694 191.118 329.931 188.131C329.097 186.719 328.075 185.324 327.916 183.692C327.78 182.298 328.298 180.869 327.967 179.508C327.696 178.397 326.9 177.501 326.131 176.655C323.958 174.263 321.785 171.871 319.612 169.48C318.538 168.297 317.421 167.035 317.092 165.471C316.45 162.424 318.978 159.667 321.489 157.825ZM185.297 87.4118C187.861 85.8696 189.414 82.7937 189.134 79.8153C188.725 75.4692 184.982 72.302 181.526 69.634C175.865 65.2626 162.92 54.6412 157.228 52.3581C151.536 50.0751 126.354 72.5378 117.604 81.1504C117.162 81.5853 116.701 82.0596 116.578 82.6674C116.455 83.2751 113.78 89.815 119.164 91.4046C124.549 92.9942 125.126 91.7693 127.325 89.815C129.525 87.8607 130.805 85.0883 131.839 82.3334C132.721 79.9806 135.39 78.8546 137.852 78.3531C140.315 77.8515 142.968 77.6647 145.005 76.1928C147.126 74.6599 150.088 74.749 152.506 75.7512C154.924 76.7534 156.92 78.5361 158.866 80.2864C160.491 81.7486 163.12 80.1136 164.122 78.1702C165.124 76.2268 165.544 73.829 167.297 72.5218C169.803 70.6526 173.649 72.3255 175.192 75.0445C177.386 78.9112 175.835 84.4324 171.947 86.5903C169.695 87.8408 166.398 88.6788 166.309 91.2537C166.264 92.5338 167.158 93.6599 168.153 94.4655C169.94 95.9108 172.849 96.5966 174.371 94.875C176.54 92.4217 174.118 87.2372 177.122 85.9342C179.775 84.7833 182.819 88.9027 185.297 87.4118ZM253.799 59.9666C254.697 58.5725 255.598 57.0453 257.097 56.3348C259.013 55.4266 261.314 56.148 263.131 57.2399C264.948 58.3318 266.571 59.793 268.564 60.5151C270.593 61.2502 272.816 61.1509 274.971 61.0421C278.555 60.8612 282.14 60.6804 285.724 60.4995C264.058 47.9459 239.687 39.1419 214.648 38.8945C212.537 38.8737 210.378 38.9218 208.398 39.6519C206.417 40.3821 204.618 41.919 204.111 43.9678C203.338 47.0879 206.176 50.4228 209.389 50.5223C207.711 51.751 207.969 54.6045 209.568 55.9348C211.167 57.2652 213.559 57.2548 215.479 56.4537C217.398 55.6527 218.954 54.1918 220.463 52.7612C223.273 50.0987 226.083 47.4361 228.893 44.7736C230.658 43.1001 233.408 43.0292 235.795 43.5014C238.182 43.9737 240.518 44.8878 242.95 44.8287C248.057 44.7046 252.581 49.9478 251.71 54.9815C249.417 52.8199 246.083 51.818 242.979 52.3583C239.875 52.8985 237.075 54.9681 235.649 57.7771C234.492 60.0545 231.909 61.258 229.398 61.7265C226.887 62.1951 224.293 62.0971 221.792 62.6139C219.29 63.1308 216.74 64.4476 215.717 66.788C214.693 69.1285 216.03 72.4664 218.574 72.7023C221.536 72.9771 223.266 69.4985 225.758 67.873C228.13 66.326 231.225 66.5286 233.992 67.13C236.759 67.7313 239.525 68.6795 242.346 68.4355C247.249 68.0115 251.133 64.1026 253.799 59.9666ZM333.142 202.624C327.465 204.813 321.788 207.002 316.111 209.191C315.321 209.495 314.36 210.273 314.835 210.974C320.25 218.966 324.418 227.801 327.143 237.063C327.408 237.964 328.776 237.29 329.311 236.517C334.276 229.338 338.235 221.464 341.035 213.198C341.542 211.701 342.014 210.085 341.58 208.566C340.897 206.179 338.331 204.976 336.441 203.367C335.919 202.923 335.391 202.408 334.712 202.31C334.178 202.232 333.646 202.43 333.142 202.624ZM267.651 131.636C265.043 134.405 267.234 139.096 265.894 142.656C265.597 143.445 265.117 144.277 265.391 145.075C265.527 145.472 265.833 145.784 266.13 146.081C267.057 147.01 267.984 147.94 268.912 148.869C269.639 149.598 270.821 150.354 271.579 149.656C274.698 146.788 278.476 144.641 282.536 143.429C283.706 143.08 284.971 142.765 285.787 141.858C286.507 141.058 286.739 139.945 286.944 138.889C288.09 132.974 289.229 127.058 290.36 121.14C290.448 120.678 290.533 120.183 290.345 119.752C290.145 119.295 289.684 119.015 289.233 118.801C284.666 116.625 278.524 118.855 276.415 123.453C275.699 125.014 275.369 126.821 274.167 128.048C272.415 129.835 269.366 129.814 267.651 131.636ZM176.582 55.9774C175.699 55.1759 174.786 54.1701 174.873 52.9809C174.966 51.7133 176.14 50.8392 177.204 50.1435C180.972 47.6784 184.741 45.2134 188.51 42.7483C188.418 42.0163 187.392 41.9389 186.666 42.0709C176.907 43.8456 167.346 46.7062 158.216 50.583C168.398 56.8596 178.166 63.8075 187.436 71.3666C188.561 68.8129 191.456 67.5559 193.17 65.3539C195.336 62.5721 195.498 58.441 198.161 56.1312C199.468 54.9978 201.409 54.212 201.67 52.5021C199.384 52.5181 197.098 52.534 194.812 52.55C192.031 52.5695 189.07 52.6415 186.759 54.189C184.742 55.5396 183.193 57.996 180.766 58.0653C179.168 58.1109 177.766 57.0523 176.582 55.9774ZM290.559 208.069C292.334 211.25 294.108 214.432 295.883 217.613C292.632 207.271 288.756 197.125 284.282 187.25C284.123 186.899 283.941 186.524 283.6 186.344C283.181 186.122 282.669 186.268 282.219 186.419C269.615 190.633 257.01 194.847 244.406 199.061C244.023 199.189 243.608 199.342 243.403 199.69C243.156 200.107 243.304 200.638 243.469 201.094C244.207 203.132 245.174 205.087 246.345 206.912C254.25 202.312 262.155 197.713 270.06 193.113C271.276 192.405 272.557 191.678 273.964 191.625C275.128 191.581 276.26 192.008 277.3 192.532C283.475 195.647 287.19 202.028 290.559 208.069ZM233.332 294.138C231.743 290.745 229.017 287.967 225.887 285.906C222.044 293.047 217.633 299.882 212.71 306.326C212.334 306.819 212.195 307.827 212.814 307.784C218.816 307.362 224.818 306.94 230.821 306.518C232.025 306.433 233.474 306.18 233.916 305.056C235.29 301.57 234.921 297.532 233.332 294.138ZM323.956 244.076C324.442 243.331 324.937 242.566 325.134 241.699C325.394 240.552 325.106 239.359 324.797 238.224C322.416 229.5 318.671 221.173 313.996 213.432C313.452 212.531 312.866 211.607 311.98 211.039C311.094 210.471 309.82 210.367 309.047 211.081C308.014 212.035 308.406 213.721 308.877 215.046C312.603 225.546 316.33 236.045 320.057 246.544C320.279 247.17 320.785 247.94 321.404 247.7C321.645 247.606 321.801 247.377 321.943 247.16C322.614 246.132 323.285 245.104 323.956 244.076ZM286.553 110.537C287.632 111.447 289.064 111.791 290.439 112.108C291.542 112.363 292.194 110.924 292.385 109.809C293.66 102.359 294.479 94.8403 295.297 87.3268C294.671 87.0609 294.007 87.5721 293.52 88.0453C291.766 89.7463 290.013 91.4473 288.26 93.1483C287.039 94.3324 285.763 95.6114 285.376 97.2672C284.639 100.419 287.326 104.011 285.628 106.766C284.887 107.967 285.475 109.627 286.553 110.537ZM282.735 170.131C282.314 169.657 281.86 169.17 281.257 168.974C280.655 168.779 279.869 169 279.66 169.598C277.793 174.938 275.926 180.277 274.06 185.617C273.882 186.124 274.002 186.979 274.517 186.827C277.665 185.897 280.57 184.253 283.731 183.371C286.893 182.488 290.589 182.499 293.115 184.595C290.17 179.431 286.685 174.574 282.735 170.131ZM309.7 92.0508C310.647 89.4822 311.594 86.9137 312.541 84.3452C312.724 83.8473 312.361 83.329 312.019 82.9226C308.639 78.8958 305.23 74.8411 301.137 71.5408C300.963 71.4002 300.765 71.2536 300.542 71.2655C300.117 71.2883 299.947 71.8173 299.887 72.2389C299.377 75.8204 298.867 79.4019 298.358 82.9834C298.209 84.0271 299.171 84.9341 300.179 85.2428C301.187 85.5515 302.272 85.4656 303.308 85.6585C305.22 86.0141 306.912 87.3822 307.661 89.1764C308.136 90.3147 308.487 91.8286 309.7 92.0508ZM279.477 161.234C281.267 156.656 282.909 152.02 284.398 147.337C284.499 147.021 284.599 146.679 284.492 146.365C284.208 145.529 282.97 145.745 282.18 146.141C279.076 147.696 276.092 149.488 273.261 151.497C272.909 151.747 272.525 152.061 272.512 152.492C272.502 152.818 272.712 153.105 272.912 153.362C275.015 156.056 277.205 158.681 279.477 161.234ZM305.734 236.685C305.398 236.319 304.847 236.262 304.351 236.27C303.229 236.289 302.111 236.518 301.071 236.941C300.56 237.15 300.052 237.409 299.5 237.437C298.949 237.465 298.33 237.178 298.194 236.643C299.652 235.6 301.42 234.997 303.211 234.932C304.007 234.903 304.03 233.551 303.331 233.168C302.632 232.785 301.77 233.065 301.026 233.351C299.796 233.824 298.566 234.296 297.337 234.769C296.979 234.906 296.61 234.473 296.662 234.093C296.714 233.713 297.022 233.425 297.327 233.192C298.433 232.347 299.753 231.785 301.129 231.572C301.785 231.471 301.89 230.454 301.411 229.995C300.932 229.536 300.195 229.506 299.533 229.541C297.606 229.641 295.697 230.059 293.904 230.771C295.432 233.514 296.993 236.24 298.586 238.946C298.999 239.647 299.446 240.379 300.161 240.767C301.444 239.146 303.395 238.072 305.451 237.854C305.944 237.802 306.069 237.05 305.734 236.685ZM332.065 286.174C330.887 286.475 329.719 286.818 328.566 287.202C328.25 287.307 327.885 287.472 327.832 287.801C327.8 287.996 327.894 288.188 327.986 288.363C328.663 289.666 329.341 290.968 330.018 292.27C330.293 292.798 330.846 293.418 331.36 293.116C333.05 292.123 334.938 291.467 336.88 291.198C337.414 291.125 337.764 290.552 337.776 290.012C337.788 289.473 337.549 288.963 337.316 288.477C336.916 287.643 336.477 286.765 335.69 286.279C334.632 285.625 333.27 285.867 332.065 286.174ZM336.612 300.485C336.151 300.569 335.619 300.708 335.438 301.14C335.291 301.493 335.447 301.891 335.601 302.241C336.189 303.575 336.776 304.908 337.364 306.242C337.548 306.658 337.791 307.126 338.235 307.225C338.551 307.296 338.872 307.152 339.164 307.012C340.07 306.578 340.976 306.144 341.882 305.71C342.391 305.466 342.932 305.194 343.211 304.703C343.491 304.211 343.343 303.442 342.798 303.292C342.507 303.212 342.2 303.326 341.928 303.458C341.117 303.853 340.386 304.426 339.52 304.678C338.654 304.929 337.551 304.736 337.14 303.933C339.274 303.175 341.314 302.153 343.198 300.897C343.029 299.72 341.378 299.615 340.208 299.829C339.009 300.047 337.811 300.266 336.612 300.485ZM319.178 269.865C319.525 269.487 320.028 269.303 320.511 269.131C321.84 268.658 323.169 268.186 324.499 267.713C325.189 267.468 325.02 266.319 324.368 265.983C323.716 265.647 322.929 265.857 322.228 266.073C320.708 266.541 319.188 267.01 317.667 267.478C317.469 267.539 317.26 267.606 317.121 267.76C316.804 268.113 317.017 268.667 317.243 269.085C317.845 270.197 318.448 271.31 319.05 272.423C319.121 272.553 319.199 272.691 319.333 272.754C319.495 272.83 319.684 272.772 319.853 272.714C321.703 272.074 323.553 271.435 325.403 270.795C325.844 270.643 326.374 270.363 326.337 269.898C326.286 269.263 325.356 269.258 324.748 269.451C322.845 270.055 320.943 270.659 319.04 271.262C318.704 270.875 318.831 270.242 319.178 269.865ZM342.828 197.269C341.19 198.195 339.552 199.12 337.914 200.046C337.717 200.157 337.51 200.278 337.402 200.477C337.116 201.003 337.681 201.574 338.178 201.908C339.197 202.59 340.216 203.273 341.235 203.956C341.436 204.09 341.652 204.229 341.893 204.232C342.442 204.237 342.724 203.591 342.865 203.061C343.317 201.358 343.769 199.656 344.221 197.953C344.278 197.739 344.333 197.505 344.241 197.304C344.02 196.818 343.293 197.007 342.828 197.269ZM321.261 273.678C320.866 273.78 320.415 273.928 320.267 274.309C320.157 274.592 320.257 274.912 320.386 275.187C320.717 275.896 321.242 276.513 321.889 276.953C323.607 276.297 325.326 275.641 327.045 274.985C327.783 274.703 328.657 274.228 328.626 273.439C328.604 272.873 328.07 272.435 327.515 272.326C326.96 272.217 326.389 272.359 325.841 272.5C324.315 272.892 322.788 273.285 321.261 273.678ZM296.36 211.854C296.961 213.028 298.449 213.368 299.751 213.579C301.827 213.915 303.903 214.252 305.978 214.588C306.015 213.41 304.799 212.626 303.719 212.153C301.74 211.286 299.675 210.617 297.563 210.158C297.335 210.108 297.098 210.061 296.872 210.116C296.195 210.279 296.043 211.235 296.36 211.854ZM288.664 210.966C288.827 210.904 288.992 210.841 289.132 210.738C289.751 210.283 289.563 209.213 288.93 208.776C288.298 208.338 287.443 208.397 286.709 208.627C285.976 208.858 285.292 209.24 284.542 209.409C283.529 209.638 282.203 209.627 281.815 210.591C281.484 211.413 282.244 212.345 283.11 212.536C283.976 212.726 284.864 212.407 285.693 212.092C286.684 211.717 287.674 211.341 288.664 210.966ZM292.65 218.386C293.486 217.841 293.099 216.403 292.21 215.949C291.32 215.495 290.251 215.707 289.277 215.93C288.25 216.165 287.153 216.44 286.454 217.227C285.754 218.015 285.755 219.491 286.71 219.937C288.007 220.544 289.223 218.832 290.639 218.62C291.316 218.519 292.077 218.76 292.65 218.386ZM322.018 264.438C322.298 264.344 322.595 264.238 322.776 264.004C322.977 263.743 322.984 263.371 322.87 263.062C322.604 262.339 321.77 261.954 320.999 261.968C320.228 261.982 319.502 262.309 318.801 262.631C317.909 263.04 317.017 263.45 316.125 263.859C315.635 264.084 315.08 264.39 314.999 264.924C314.917 265.466 315.415 265.959 315.951 266.074C316.488 266.188 317.041 266.028 317.565 265.866C319.055 265.407 320.539 264.931 322.018 264.438ZM326.037 283.327C327.958 282.52 329.88 281.712 331.801 280.904C331.983 280.828 332.17 280.747 332.302 280.601C332.693 280.169 332.337 279.415 331.793 279.208C331.249 279 330.642 279.161 330.083 279.323C328.784 279.699 327.486 280.075 326.188 280.451C325.469 280.659 324.666 280.938 324.363 281.622C323.95 282.557 325.095 283.724 326.037 283.327ZM339.006 294.527C339.774 294.231 339.494 292.938 338.732 292.628C337.97 292.318 337.114 292.636 336.342 292.921C334.83 293.478 333.27 293.909 331.686 294.208C331.134 294.951 331.807 296.091 332.698 296.343C333.589 296.595 334.529 296.257 335.392 295.923C336.597 295.458 337.802 294.993 339.006 294.527ZM298.106 208.429C299.654 208.835 301.202 209.241 302.75 209.646C303.339 209.801 304.248 209.714 304.204 209.107C301.531 207.258 298.455 205.995 295.254 205.433C295.084 205.403 294.905 205.376 294.743 205.434C294.188 205.636 294.4 206.496 294.818 206.914C295.683 207.777 296.924 208.119 298.106 208.429ZM303.955 202.449C304.503 203.765 305.05 205.082 305.598 206.398C305.927 207.191 306.298 208.034 307.025 208.49C307.753 208.946 308.937 208.753 309.175 207.928C309.356 207.299 308.931 206.671 308.528 206.156C306.986 204.191 305.398 202.261 303.767 200.37C303.405 200.996 303.678 201.782 303.955 202.449ZM301.304 204.923C301.594 205.023 301.948 205.113 302.183 204.915C302.458 204.683 302.358 204.233 302.172 203.926C301.493 202.809 300.12 202.367 298.863 202.01C297.173 201.53 295.483 201.05 293.793 200.57C293.268 200.42 292.873 201.187 293.118 201.674C293.364 202.162 293.93 202.381 294.446 202.559C296.732 203.347 299.018 204.135 301.304 204.923ZM323.901 277.506C323.426 277.65 322.909 277.824 322.65 278.247C322.188 278.999 322.863 279.981 323.657 280.367C325.449 278.908 327.733 278.065 330.043 278.01C330.829 277.991 330.898 276.673 330.231 276.256C329.564 275.839 328.7 276.054 327.947 276.282C326.598 276.69 325.25 277.098 323.901 277.506ZM316.394 256.93C315.305 257.218 314.215 257.506 313.125 257.794C312.126 258.059 310.873 258.713 311.113 259.718C311.317 260.574 312.513 260.768 313.315 260.408C314.118 260.047 314.73 259.348 315.529 258.98C316.835 258.377 318.673 258.597 319.406 257.359C318.782 256.473 317.442 256.653 316.394 256.93ZM275.554 199.306C275.345 199.396 275.129 199.5 274.991 199.681C274.635 200.149 275.024 200.877 275.575 201.083C276.126 201.289 276.738 201.141 277.31 201.004C279.233 200.544 281.189 200.225 283.159 200.051C283.35 198.971 281.938 198.365 280.842 198.322C279.035 198.25 277.214 198.589 275.554 199.306ZM307.42 241.198C307.985 240.599 307.666 239.266 306.858 239.424C304.717 239.842 302.653 240.652 300.799 241.801C300.365 242.683 301.564 243.599 302.536 243.446C303.507 243.292 304.287 242.58 305.196 242.208C305.958 241.896 306.855 241.796 307.42 241.198ZM308.593 221.85C308.339 221.53 307.934 221.378 307.549 221.24C305.677 220.571 303.806 219.902 301.935 219.233C301.423 219.05 300.849 218.868 300.351 219.086C299.853 219.304 299.654 220.13 300.142 220.371C302.539 221.556 305.088 222.435 307.706 222.98C307.978 223.037 308.283 223.085 308.518 222.935C308.862 222.716 308.847 222.171 308.593 221.85ZM299.782 199.834C300.049 199.993 300.4 199.693 300.407 199.383C300.414 199.073 300.206 198.803 299.996 198.575C297.985 196.381 295.036 195.357 292.214 194.414C291.498 194.175 290.451 194.094 290.242 194.819C293.504 196.328 296.69 198.003 299.782 199.834ZM341.403 297.133C341.235 296.545 340.614 296.179 340.006 296.118C339.397 296.057 338.793 296.237 338.208 296.416C337.187 296.728 336.166 297.04 335.146 297.353C334.44 297.568 333.583 297.992 333.642 298.728C333.69 299.326 334.387 299.684 334.985 299.627C335.582 299.569 336.109 299.232 336.65 298.972C337.831 298.407 339.179 298.195 340.476 298.372C341.082 298.454 341.572 297.721 341.403 297.133ZM277.378 203.779C277.369 204.331 277.801 204.858 278.344 204.958C278.696 205.023 279.055 204.926 279.399 204.83C281.386 204.276 283.373 203.723 285.36 203.169C285.392 202.61 284.909 202.128 284.374 201.966C283.838 201.804 283.263 201.887 282.71 201.971C281.267 202.191 279.824 202.41 278.381 202.63C277.834 202.713 277.386 203.226 277.378 203.779ZM310.201 243.527C310.28 243.008 309.77 242.55 309.249 242.484C308.728 242.419 308.216 242.632 307.734 242.84C306.201 243.502 304.667 244.164 303.134 244.826C302.678 245.405 303.239 246.324 303.958 246.486C304.677 246.649 305.406 246.32 306.07 246C307.118 245.495 308.165 244.99 309.213 244.485C309.644 244.277 310.129 244 310.201 243.527ZM288.269 190.426C288.445 190.741 288.797 190.908 289.126 191.056C291.859 192.28 294.591 193.504 297.324 194.729C297.809 194.946 298.516 195.094 298.756 194.619C299.013 194.11 298.379 193.623 297.854 193.4C294.914 192.151 291.975 190.902 289.035 189.653C288.887 189.591 288.73 189.526 288.571 189.553C288.215 189.612 288.092 190.111 288.269 190.426ZM302.42 225.678C302.328 225.639 302.23 225.6 302.132 225.619C302.031 225.639 301.947 225.727 301.932 225.83C302.17 227.465 304.006 228.271 305.578 228.781C307.632 229.448 309.687 230.115 311.742 230.782C312.235 230.236 311.429 229.479 310.751 229.193C307.974 228.021 305.197 226.849 302.42 225.678ZM287.227 206.513C287.456 206.081 287.111 205.541 286.677 205.317C285.917 204.927 285 205.145 284.177 205.371C283.238 205.628 282.3 205.886 281.362 206.143C280.686 206.329 279.871 206.68 279.846 207.38C279.827 207.904 280.322 208.333 280.837 208.429C281.353 208.525 281.879 208.374 282.382 208.224C283.72 207.824 285.059 207.425 286.397 207.025C286.718 206.93 287.071 206.808 287.227 206.513ZM333.745 282.6C333.187 282.277 332.485 282.466 331.872 282.662C329.919 283.287 327.966 283.911 326.013 284.536C325.581 285.227 326.367 286.147 327.181 286.196C327.995 286.244 328.733 285.769 329.451 285.384C330.759 284.684 332.2 284.233 333.673 284.064C334.314 283.99 334.303 282.923 333.745 282.6ZM296.448 223.312C295.822 223.145 295.16 223.261 294.523 223.379C293.735 223.524 292.947 223.669 292.159 223.815C291.265 223.98 290.132 224.442 290.227 225.346C290.283 225.879 290.809 226.264 291.34 226.341C291.87 226.419 292.404 226.261 292.917 226.105C294.489 225.626 296.062 225.147 297.634 224.668C297.65 224.02 297.073 223.48 296.448 223.312ZM291.084 212.718C290.647 212.272 289.926 212.24 289.326 212.413C288.725 212.587 288.187 212.928 287.6 213.144C286.909 213.398 286.161 213.473 285.471 213.733C284.782 213.994 284.116 214.515 283.997 215.242C284.255 215.847 285.124 215.78 285.76 215.608C287.444 215.155 289.128 214.701 290.812 214.248C291.416 214.085 291.521 213.165 291.084 212.718ZM288.74 220.96C288.039 221.164 288.16 222.323 288.799 222.676C289.439 223.028 290.229 222.834 290.931 222.631C292.404 222.206 293.876 221.78 295.348 221.355C295.456 220.619 294.783 219.954 294.057 219.794C293.331 219.634 292.581 219.843 291.867 220.051C290.825 220.354 289.782 220.657 288.74 220.96ZM297.094 117.374C298.03 116.7 297.886 115.309 297.913 114.155C296.693 114.006 295.357 113.883 294.328 114.555C293.299 115.228 293.023 117.044 294.125 117.59C294.503 117.778 294.944 117.773 295.367 117.764C295.966 117.751 296.607 117.725 297.094 117.374ZM299.453 215.442C298.864 215.381 298.005 215.642 298.173 216.21C298.253 216.483 298.553 216.618 298.82 216.714C301.386 217.642 304.065 218.256 306.779 218.539C307.115 218.461 307.214 217.986 307.038 217.689C306.862 217.392 306.524 217.239 306.203 217.111C304.046 216.243 301.766 215.68 299.453 215.442ZM287.512 186.959C289.731 188.1 291.993 189.157 294.291 190.129C294.738 190.318 295.244 190.505 295.693 190.321C296.141 190.137 296.313 189.386 295.869 189.191C293.256 188.048 290.643 186.904 288.03 185.761C287.615 185.579 287.023 185.449 286.799 185.843C286.553 186.274 287.07 186.732 287.512 186.959ZM309.478 225.212C309.1 224.868 308.592 224.715 308.102 224.571C306.04 223.965 303.979 223.359 301.917 222.754C301.632 222.67 301.315 222.588 301.048 222.719C300.781 222.851 300.684 223.3 300.951 223.43C303.772 224.813 306.75 225.875 309.808 226.59C310.062 226.146 309.857 225.555 309.478 225.212ZM311.095 257.027C312.565 256.507 314.035 255.987 315.505 255.467C316.152 255.239 316.846 254.974 317.217 254.396C317.122 253.879 316.562 253.553 316.036 253.542C315.51 253.532 315.011 253.76 314.535 253.982C313.246 254.584 311.958 255.186 310.67 255.788C310.204 256.006 309.668 256.326 309.66 256.839C309.902 257.311 310.596 257.204 311.095 257.027ZM299.414 227.626C299.758 227.244 299.449 226.58 298.972 226.39C298.494 226.199 297.956 226.33 297.46 226.463C295.773 226.914 294.086 227.366 292.398 227.817C292.092 228.172 292.367 228.771 292.798 228.957C293.228 229.142 293.722 229.044 294.179 228.942C295.701 228.604 297.224 228.266 298.746 227.928C298.989 227.874 299.248 227.811 299.414 227.626ZM320.031 259.246C319.683 259.17 319.328 259.307 318.998 259.442C317.199 260.177 315.401 260.912 313.602 261.647C313.081 261.86 313.291 262.744 313.82 262.937C314.349 263.13 314.926 262.88 315.433 262.635C316.978 261.887 318.524 261.139 320.07 260.391C320.245 260.306 320.433 260.209 320.519 260.034C320.677 259.715 320.379 259.323 320.031 259.246ZM306.825 230.682C306.132 230.426 305.134 230.292 304.857 230.976C307.295 232.232 309.88 233.199 312.543 233.853C313.087 233.524 312.408 232.749 311.812 232.528C310.149 231.913 308.487 231.297 306.825 230.682ZM273.292 196.997C272.826 197.525 273.284 198.528 273.989 198.522C275.599 197.471 277.479 196.837 279.397 196.699C278.789 195.939 277.736 195.65 276.765 195.726C275.795 195.802 274.879 196.189 273.984 196.571C273.732 196.678 273.472 196.791 273.292 196.997ZM312.684 236.496C313.211 236.624 314.041 236.476 313.91 235.949C311.708 234.956 309.387 234.225 307.013 233.777C306.751 234.131 306.908 234.666 307.236 234.959C307.564 235.253 308.011 235.366 308.438 235.469C309.854 235.812 311.269 236.154 312.684 236.496ZM311.018 239.255C312.251 239.636 313.528 239.877 314.815 239.97C315.073 239.629 314.926 239.108 314.611 238.82C314.295 238.531 313.863 238.416 313.449 238.311C312.135 237.977 310.822 237.643 309.509 237.309C309.032 238.13 310.112 238.974 311.018 239.255ZM339.095 309.262C338.801 309.984 339.183 310.995 339.956 311.095C340.919 310.171 341.746 309.105 342.401 307.943C342.028 307.54 341.37 307.637 340.854 307.827C340.123 308.097 339.389 308.54 339.095 309.262ZM318.531 249.29C317.904 248.707 317.13 248.282 316.301 248.068C316.168 249.243 316.842 250.466 317.906 250.982C318.161 251.105 318.463 251.19 318.724 251.079C319.382 250.799 319.054 249.778 318.531 249.29ZM315.449 241.91C315.018 241.599 314.461 241.54 313.932 241.491C313.28 241.43 312.629 241.369 311.977 241.308C311.661 242.069 312.555 242.809 313.37 242.928C314.184 243.047 315.076 242.884 315.788 243.298C316.11 242.876 315.88 242.221 315.449 241.91ZM320.499 256.233C320.755 256.451 321.069 256.646 321.403 256.609C321.521 255.01 320.441 253.522 319.095 252.648C318.937 253.975 319.482 255.366 320.499 256.233ZM316.325 245.453C315.57 245.036 314.682 244.866 313.827 244.973C314.137 245.806 314.875 246.467 315.738 246.682C316.2 246.798 316.776 246.747 317.028 246.343C317.279 245.939 316.783 245.27 316.393 245.544M274.064 193.638C273.349 193.764 272.677 194.128 272.18 194.658C273.069 194.908 274.082 194.655 274.75 194.016C274.585 193.795 274.33 193.644 274.057 193.606" fill="#00160A"/>
<path fill-rule="evenodd" clip-rule="evenodd" d="M262.411 267.687C274.195 256.367 290.735 257.964 302.304 270.384C312.364 281.19 309.973 295.465 298.548 307.438C294.238 311.91 285.585 314.876 279.324 314.15C274.023 313.623 265.769 309.717 260.867 306.115C258.598 304.448 256.522 301.01 254.564 295.79L254.275 295.009C250.798 285.367 253.147 275.175 261.025 268.779L261.394 268.485L261.477 268.371C261.546 268.287 261.624 268.206 261.714 268.131L261.857 268.021L262.017 267.919L262.353 267.749L262.411 267.687ZM282.896 306.567L279.332 310.379L279.725 310.413C283.378 310.678 286.953 310.106 290.203 308.724L290.384 308.644L290.132 308.63C287.886 308.469 285.513 307.784 283.047 306.639L282.896 306.567ZM272.498 299.408L272.164 299.102L271.812 299.445C270.431 300.791 269.026 302.17 267.59 303.592L265.963 305.207C266.424 305.543 266.903 305.87 267.402 306.19C269.656 307.659 272.09 308.773 274.608 309.496L275.15 309.645L277.755 306.901L279.705 304.838L279.577 304.762C277.127 303.258 274.719 301.411 272.498 299.408ZM289.498 299.503L285.25 304.049L285.464 304.142C288.77 305.528 291.709 305.79 294.239 304.769L294.505 304.655L294.249 304.366C292.971 302.936 291.597 301.519 290.093 300.071L289.498 299.503ZM263.903 289.911L263.149 290.652C262.063 291.709 260.967 292.759 259.862 293.801L258.123 295.426L258.269 295.774C259.446 298.488 261.086 300.849 263.223 302.915L263.3 302.987L263.542 302.742C265.089 301.172 266.688 299.581 268.353 297.953L269.648 296.69L269.296 296.336C267.359 294.366 265.702 292.437 264.307 290.488L263.903 289.911ZM296.437 292.078L291.801 297.039L291.847 297.083C293.626 298.781 295.252 300.446 296.762 302.128L297.22 302.644L297.234 302.628C298.816 300.479 298.544 296.977 296.643 292.549L296.437 292.078ZM280.216 291.406L279.872 291.729C278.286 293.217 276.679 294.744 275.04 296.319L274.578 296.763L275.009 297.144C277.276 299.125 279.448 300.789 281.618 302.13L282.028 302.377L284.938 299.289L286.941 297.154L286.279 296.567C285.078 295.506 283.779 294.395 282.147 293.023L280.216 291.406ZM304.985 282.935L298.57 289.796L298.779 290.2C299.132 290.895 299.478 291.601 299.818 292.319L300.324 293.405L300.794 294.449C301.273 295.461 301.603 296.467 301.78 297.46L301.807 297.627L301.998 297.283C304.594 292.525 305.658 287.627 305.007 283.076L304.985 282.935ZM290.875 282.86L290.546 282.423L289.376 283.405L286.117 286.101L285.533 286.59C284.933 287.097 284.395 287.56 283.898 288.001L283.321 288.519L282.724 289.07L284.068 290.192C285.568 291.45 286.873 292.568 288.094 293.646L289.255 294.681L292.983 290.688L294.756 288.779L294.743 288.753C293.628 286.788 292.303 284.779 290.875 282.86ZM271.018 283.262L270.739 282.988L270.651 283.082C269.56 284.224 268.461 285.357 267.352 286.481L266.245 287.592L266.476 287.946C267.823 289.966 269.491 291.937 271.436 293.849L271.928 294.326L272.017 294.409L272.168 294.265C273.292 293.191 274.444 292.1 275.636 290.981L277.555 289.184L277.29 288.963C275.13 287.123 273.045 285.228 271.018 283.262ZM259.163 275.982L259.056 276.159C256.418 280.596 255.603 286.111 256.828 291.365L256.938 291.814L256.994 292.028L257.547 291.512C258.704 290.423 259.852 289.323 260.992 288.213L262.151 287.073L262.04 286.872C260.142 283.338 259.148 279.75 259.163 276.064L259.163 275.982ZM280.125 272.661L278.749 274.242C277.187 276.02 275.603 277.779 273.997 279.518L273.051 280.534L273.287 280.764C275.157 282.572 277.095 284.333 279.118 286.064L280.059 286.86L280.957 286.033C281.534 285.509 282.152 284.97 282.851 284.376L283.997 283.416L286.69 281.197C287.176 280.795 287.611 280.433 288.014 280.093L288.409 279.757L288.218 279.534C287.294 278.462 286.424 277.541 285.701 276.864L285.489 276.669C284.02 275.345 282.416 274.133 280.628 272.98L280.125 272.661ZM299.571 272.468L299.427 272.721C297.94 275.242 295.89 277.603 293.103 280.173L292.87 280.385L292.953 280.501C294.172 282.212 295.326 284.002 296.42 285.87L296.817 286.557L299.935 283.189L303.881 278.907L303.789 278.683C302.882 276.528 301.535 274.504 299.743 272.642L299.571 272.468ZM262.657 274.385L262.642 274.531C262.321 277.93 262.987 281.275 264.547 284.564L264.587 284.645L265.003 284.229C265.922 283.298 266.836 282.359 267.745 281.413L268.438 280.686L268.156 280.399C266.558 278.753 264.99 277.053 263.441 275.289L262.657 274.385ZM264.207 270.625L263.969 270.74L264.03 270.814C266.14 273.332 268.291 275.716 270.516 278.004L270.745 278.236L271.674 277.24C273.303 275.474 274.91 273.688 276.495 271.882L277.267 270.994L277.184 270.949C276.792 270.736 276.39 270.523 275.978 270.31L275.352 269.989C271.678 268.185 268.965 268.385 264.576 270.449L264.207 270.625ZM287.178 264.193L285.825 265.872C284.911 266.995 283.989 268.111 283.059 269.221L282.407 269.992L282.572 270.097C285.033 271.684 287.13 273.407 288.853 275.316L289.244 275.76C289.626 276.203 290.002 276.652 290.373 277.108L290.8 277.639L290.859 277.586C293.603 275.027 295.543 272.696 296.872 270.192L296.911 270.115L296.559 269.837C293 267.041 290.393 265.378 287.635 264.356L287.178 264.193ZM281.736 263.231C278.25 263.206 275.075 263.829 272.145 265.109L271.978 265.183L272.269 265.222C272.912 265.316 273.541 265.478 274.161 265.713L274.469 265.836C276.129 266.567 277.656 267.298 279.087 268.06L279.566 268.318L280.504 267.212C281.459 266.075 282.405 264.93 283.342 263.778L283.678 263.361L283.27 263.315C282.93 263.28 282.59 263.256 282.248 263.243L281.736 263.231Z" fill="#FFB61D"/>
<path fill-rule="evenodd" clip-rule="evenodd" d="M307.38 124.22C308.062 122.373 310.52 121.61 312.333 122.38C314.146 123.15 315.271 125.075 315.555 127.024C315.839 128.973 315.408 130.954 314.853 132.844C314.347 134.568 313.737 136.26 313.026 137.91C312.96 138.063 312.871 138.235 312.708 138.271C312.535 138.31 312.375 138.175 312.25 138.049C309.169 134.928 307.312 130.629 307.151 126.247C307.126 125.563 307.143 124.862 307.38 124.22M312.705 124.671C312.2 124.238 311.547 123.954 310.881 123.974C309.328 124.021 308.244 125.716 308.278 127.27C308.313 128.824 309.141 130.235 309.944 131.565C310.519 132.518 311.095 133.471 311.67 134.424C311.866 134.749 312.252 135.119 312.558 134.894C312.681 134.803 312.728 134.644 312.768 134.497C313.004 133.631 313.239 132.765 313.475 131.9C313.812 130.662 314.151 129.404 314.13 128.122C314.109 126.839 313.679 125.506 312.705 124.671L312.705 124.671Z" fill="#FFB61D"/>
<path fill-rule="evenodd" clip-rule="evenodd" d="M311.689 129.646C311.31 129.752 310.897 129.732 310.531 129.589C309.82 129.312 309.329 128.551 309.37 127.789C309.411 127.027 309.981 126.323 310.718 126.124C311.834 125.823 313.091 126.851 313.016 128.005C312.968 128.753 312.411 129.442 311.689 129.646Z" fill="#FFB61D"/>
</svg>
